{"glyphs":{"0":{"ha":799,"x_min":0,"x_max":0,"o":"m 297 940 b 46 690 158 940 46 829 l 46 251 b 297 0 46 113 158 0 l 501 0 b 753 251 640 0 753 113 l 753 690 b 501 940 753 829 640 940 z m 453 729 l 257 306 l 257 650 b 336 729 257 694 293 729 z m 342 211 l 542 647 l 542 290 b 463 211 542 247 506 211 z "},"1":{"ha":422,"x_min":0,"x_max":0,"o":"m 46 940 l 46 729 l 165 729 l 165 0 l 376 0 l 376 940 z "},"2":{"ha":799,"x_min":0,"x_max":0,"o":"m 650 389 b 751 579 708 432 749 501 b 753 690 753 582 753 690 b 501 940 753 829 640 940 l 46 940 l 46 601 l 257 601 l 257 729 l 463 729 b 542 651 506 729 542 694 l 542 611 b 511 549 542 586 529 564 l 506 544 l 49 211 l 46 210 l 46 0 l 753 0 l 753 211 l 407 211 z "},"3":{"ha":799,"x_min":0,"x_max":0,"o":"m 679 729 l 679 940 l 46 940 l 46 729 l 331 729 l 163 601 l 163 390 l 463 390 b 542 311 506 390 542 354 l 542 290 b 463 211 542 247 506 211 l 46 211 l 46 0 l 501 0 b 753 251 640 0 753 113 l 753 351 b 511 601 753 486 644 597 z "},"4":{"ha":799,"x_min":0,"x_max":0,"o":"m 753 940 l 542 940 l 542 496 l 336 496 b 257 575 293 496 257 532 l 257 940 l 46 940 l 46 535 b 297 285 46 397 158 285 l 542 285 l 542 0 l 753 0 z "},"5":{"ha":799,"x_min":0,"x_max":0,"o":"m 257 601 l 257 729 l 681 729 l 681 940 l 46 940 l 46 390 l 463 390 b 542 311 507 390 542 354 l 542 290 b 463 211 542 247 507 211 l 46 211 l 46 0 l 503 0 b 753 251 640 0 753 113 l 753 351 b 511 601 753 486 646 597 z "},"6":{"ha":799,"x_min":0,"x_max":0,"o":"m 700 729 l 700 940 l 297 940 b 46 690 158 940 46 829 l 46 251 b 297 0 46 113 158 0 l 501 0 b 753 251 640 0 753 113 l 753 351 b 501 601 753 489 640 601 l 297 601 b 257 599 283 601 269 600 l 257 650 b 336 729 257 694 293 729 z m 463 390 b 542 311 506 390 542 356 l 542 290 b 463 211 542 247 506 211 l 336 211 b 257 290 293 211 257 247 l 257 311 b 336 390 257 356 293 390 z "},"7":{"ha":740,"x_min":0,"x_max":0,"o":"m 694 940 l 46 940 l 46 729 l 468 729 l 194 0 l 419 0 l 694 729 z "},"8":{"ha":797,"x_min":0,"x_max":0,"o":"m 751 690 b 501 940 751 829 639 940 l 296 940 b 46 690 157 940 46 829 l 46 640 b 92 496 46 586 63 536 b 46 351 63 454 46 406 l 46 251 b 296 0 46 113 157 0 l 501 0 b 751 251 639 0 751 113 l 751 351 b 706 496 751 406 735 454 b 751 640 735 536 751 586 z m 476 729 b 540 665 513 729 540 701 b 476 601 540 631 513 601 l 321 601 b 257 665 285 601 257 631 b 321 729 257 701 285 729 z m 540 290 b 461 211 540 247 506 211 l 336 211 b 257 290 292 211 257 247 l 257 311 b 336 390 257 356 292 390 l 461 390 b 540 311 506 390 540 356 z "},"9":{"ha":797,"x_min":0,"x_max":0,"o":"m 97 211 l 97 0 l 501 0 b 751 251 639 0 751 113 l 751 690 b 501 940 751 829 639 940 l 296 940 b 46 690 157 940 46 829 l 46 590 b 296 340 46 453 157 340 l 501 340 b 540 343 514 340 528 342 l 540 290 b 461 211 540 247 506 211 z m 335 551 b 256 631 292 551 256 586 l 256 650 b 335 729 256 694 292 729 l 461 729 b 540 650 506 729 540 694 l 540 631 b 461 551 540 586 506 551 z "}," ":{"ha":415,"x_min":0,"x_max":0,"o":""}," ":{"ha":415,"x_min":0,"x_max":0,"o":""},"!":{"ha":303,"x_min":0,"x_max":0,"o":"m 113 211 b 46 144 76 211 46 182 l 46 65 b 113 0 46 29 76 0 l 192 0 b 257 65 228 0 257 29 l 257 144 b 192 211 257 182 228 211 z m 257 940 l 46 940 l 46 288 l 257 288 z "},"\"":{"ha":549,"x_min":0,"x_max":0,"o":"m 358 940 b 292 875 322 940 292 911 l 292 796 b 358 729 292 758 322 729 l 381 729 b 397 711 390 729 397 721 l 397 658 b 414 643 397 650 404 643 l 424 643 b 503 722 468 643 503 678 l 503 875 b 438 940 503 911 474 940 z m 113 940 b 46 875 76 940 46 911 l 46 796 b 113 729 46 758 76 729 l 135 729 b 151 711 144 729 151 721 l 151 658 b 168 643 151 650 158 643 l 178 643 b 257 722 222 643 257 678 l 257 875 b 192 940 257 911 228 940 z "},"#":{"ha":1283,"x_min":0,"x_max":0,"o":"m 1186 592 l 1238 733 l 1018 733 l 1093 940 l 942 940 l 867 733 l 608 733 l 683 940 l 532 940 l 457 733 l 238 735 l 186 592 l 406 592 l 318 349 l 97 349 l 46 207 l 265 207 l 190 0 l 342 0 l 417 207 l 675 207 l 600 0 l 751 0 l 826 207 l 1046 206 l 1097 349 l 878 349 l 965 592 z m 726 349 l 468 349 l 557 592 l 815 592 z "},"$":{"ha":799,"x_min":0,"x_max":0,"o":"m 753 729 l 753 940 l 469 940 l 469 1097 l 328 1097 l 328 940 l 296 940 b 46 690 158 940 46 828 l 46 640 b 296 390 46 501 158 390 l 463 390 b 469 389 465 390 468 390 b 542 311 510 385 542 351 l 542 290 b 469 211 542 249 510 215 l 46 211 l 46 0 l 328 0 l 328 -157 l 469 -157 l 469 0 l 501 0 b 753 251 640 0 753 113 l 753 350 b 501 601 753 489 640 601 l 321 601 b 257 665 286 601 257 629 b 276 711 257 683 264 699 b 321 729 288 722 303 729 z "},"%":{"ha":868,"x_min":0,"x_max":0,"o":"m 549 940 l 208 0 l 319 0 l 661 940 z m 353 832 b 243 940 353 892 303 940 l 154 940 b 46 832 94 940 46 892 l 46 640 b 154 532 46 581 94 532 l 243 532 b 353 640 303 532 353 581 z m 138 664 l 138 814 b 171 849 138 833 153 849 l 222 849 z m 174 624 l 261 813 l 261 658 b 226 624 261 639 244 624 z m 625 408 b 515 300 564 408 515 360 l 515 108 b 625 0 515 49 564 0 l 714 0 b 822 108 774 0 822 49 l 822 300 b 714 408 822 360 774 408 z m 607 133 l 607 282 b 642 317 607 301 622 317 l 692 317 z m 731 126 b 697 92 731 107 715 92 l 644 92 l 731 281 z "},"&":{"ha":894,"x_min":0,"x_max":0,"o":"m 849 601 l 540 601 l 540 290 b 461 211 540 247 506 211 l 336 211 b 257 290 292 211 257 247 l 257 311 b 336 390 257 354 292 390 l 399 390 l 399 601 l 321 601 b 257 665 285 601 257 629 b 321 729 257 700 285 729 l 540 729 l 540 940 l 296 940 b 46 690 157 940 46 828 l 46 640 b 92 496 46 586 63 536 b 46 350 63 454 46 404 l 46 251 b 296 0 46 113 157 0 l 501 0 b 751 251 639 0 751 113 l 751 390 l 849 390 z "},"'":{"ha":303,"x_min":0,"x_max":0,"o":"m 113 940 b 46 875 76 940 46 911 l 46 796 b 113 729 46 758 76 729 l 135 729 b 151 711 144 729 151 721 l 151 658 b 168 643 151 650 158 643 l 178 643 b 257 722 222 643 257 678 l 257 875 b 192 940 257 911 228 940 z "},"(":{"ha":542,"x_min":0,"x_max":0,"o":"m 496 983 l 496 1125 l 385 1125 b 46 785 197 1125 46 1008 l 46 156 b 385 -185 46 -93 197 -185 l 496 -185 l 496 -43 l 454 -43 b 257 156 344 -43 257 46 l 257 785 b 454 983 257 894 344 983 z "},")":{"ha":542,"x_min":0,"x_max":0,"o":"m 46 983 l 88 983 b 285 785 197 983 285 894 l 285 156 b 88 -43 285 46 197 -43 l 46 -43 l 46 -185 l 157 -185 b 496 156 344 -185 496 -93 l 496 785 b 157 1125 496 1008 344 1125 l 46 1125 z "},"*":{"ha":692,"x_min":0,"x_max":0,"o":"m 646 806 l 601 940 l 415 879 l 415 1072 l 272 1072 l 272 876 l 90 935 l 46 800 l 233 739 l 119 583 l 235 500 l 350 660 l 464 503 l 578 588 l 463 746 z "},"+":{"ha":601,"x_min":0,"x_max":0,"o":"m 556 542 l 372 542 l 372 725 l 229 725 l 229 542 l 46 542 l 46 399 l 229 399 l 229 215 l 372 215 l 372 399 l 556 399 z "},",":{"ha":303,"x_min":0,"x_max":0,"o":"m 113 211 b 46 144 76 211 46 182 l 46 65 b 113 0 46 29 76 0 l 135 0 b 151 -18 144 0 151 -8 l 151 -71 b 168 -86 151 -79 158 -86 l 178 -86 b 257 -7 222 -86 257 -51 l 257 144 b 192 211 257 182 228 211 z "},"-":{"ha":600,"x_min":0,"x_max":0,"o":"m 554 399 l 554 542 l 46 542 l 46 399 z "},"­":{"ha":600,"x_min":0,"x_max":0,"o":"m 554 399 l 554 542 l 46 542 l 46 399 z "},".":{"ha":303,"x_min":0,"x_max":0,"o":"m 58 0 l 243 0 b 257 14 250 0 257 6 l 257 197 b 243 211 257 206 250 211 l 58 211 b 46 197 51 211 46 206 l 46 14 b 58 0 46 6 51 0 z "},"/":{"ha":585,"x_min":0,"x_max":0,"o":"m 539 940 l 388 940 l 46 0 l 197 0 z "},":":{"ha":303,"x_min":0,"x_max":0,"o":"m 60 0 l 244 0 b 257 14 251 0 257 6 l 257 197 b 244 211 257 206 251 211 l 60 211 b 46 197 53 211 46 206 l 46 14 b 60 0 46 6 53 0 z m 60 471 l 244 471 b 257 485 251 471 257 478 l 257 669 b 244 682 257 676 251 682 l 60 682 b 46 669 53 682 46 676 l 46 485 b 60 471 46 478 53 471 z "},";":{"ha":303,"x_min":0,"x_max":0,"o":"m 60 471 l 243 471 b 257 485 251 471 257 478 l 257 669 b 243 682 257 676 251 682 l 60 682 b 46 669 51 682 46 676 l 46 485 b 60 471 46 478 51 471 z m 113 211 b 46 144 75 211 46 182 l 46 65 b 113 0 46 29 75 0 l 133 0 b 151 -18 143 0 151 -8 l 151 -71 b 167 -86 151 -79 158 -86 l 178 -86 b 257 -7 222 -86 257 -51 l 257 144 b 192 211 257 182 228 211 z "},"<":{"ha":496,"x_min":0,"x_max":0,"o":"m 450 767 l 46 471 l 450 174 l 450 350 l 286 471 l 450 590 z "},"=":{"ha":600,"x_min":0,"x_max":0,"o":"m 46 276 l 554 276 l 554 418 l 46 418 z m 46 664 l 46 522 l 554 522 l 554 664 z "},">":{"ha":496,"x_min":0,"x_max":0,"o":"m 46 174 l 450 471 l 46 767 l 46 590 l 210 471 l 46 350 z "},"?":{"ha":799,"x_min":0,"x_max":0,"o":"m 275 211 b 208 144 239 211 208 182 l 208 65 b 275 0 208 29 239 0 l 354 0 b 419 65 390 0 419 29 l 419 144 b 354 211 419 182 390 211 z m 46 940 l 46 729 l 476 729 b 542 665 513 729 542 700 b 522 619 542 647 533 632 b 476 601 511 608 494 601 l 208 601 l 208 288 l 419 288 l 419 390 l 501 390 b 753 640 640 390 753 501 l 753 690 b 501 940 753 828 640 940 z "},"@":{"ha":936,"x_min":0,"x_max":0,"o":"m 219 893 b 46 719 124 893 46 815 l 46 221 b 219 47 46 125 124 47 l 785 47 l 785 153 l 219 153 b 151 221 182 153 151 183 l 151 719 b 219 788 151 757 182 788 l 718 788 b 785 719 756 788 785 757 l 785 407 b 718 340 785 369 756 340 l 646 340 l 646 707 l 422 707 b 290 575 350 707 290 649 l 290 365 b 422 233 290 293 350 233 l 718 233 b 785 247 742 233 764 239 b 890 407 847 274 890 335 l 890 719 b 718 893 890 815 814 893 z m 540 340 l 436 340 b 397 379 414 340 397 357 l 397 561 b 436 601 397 583 414 601 l 540 601 z "},"A":{"ha":799,"x_min":0,"x_max":0,"o":"m 46 940 l 46 729 l 463 729 b 542 650 506 729 542 694 l 542 601 l 46 601 l 46 0 l 257 0 l 257 390 l 542 390 l 542 0 l 753 0 l 753 690 b 501 940 753 828 640 940 z "},"B":{"ha":799,"x_min":0,"x_max":0,"o":"m 753 260 b 658 494 753 351 717 433 b 753 729 717 556 753 639 l 753 940 l 46 940 l 46 729 l 542 729 b 504 639 542 694 526 663 b 413 601 481 615 449 601 l 46 601 l 46 0 l 753 0 z m 542 211 l 257 211 l 257 390 l 413 390 b 542 261 483 390 542 332 z "},"C":{"ha":799,"x_min":0,"x_max":0,"o":"m 753 601 l 753 940 l 296 940 b 46 690 158 940 46 828 l 46 251 b 296 0 46 113 158 0 l 753 0 l 753 390 l 542 390 l 542 211 l 336 211 b 257 290 292 211 257 247 l 257 650 b 336 729 257 694 292 729 l 542 729 l 542 601 z "},"D":{"ha":797,"x_min":0,"x_max":0,"o":"m 46 940 l 46 729 l 461 729 b 540 650 506 729 540 694 l 540 290 b 461 211 540 247 506 211 l 257 211 l 257 601 l 46 601 l 46 0 l 501 0 b 751 251 639 0 751 113 l 751 690 b 501 940 751 828 639 940 z "},"E":{"ha":733,"x_min":0,"x_max":0,"o":"m 688 729 l 688 940 l 46 940 l 46 729 z m 257 211 l 257 390 l 556 390 l 556 601 l 46 601 l 46 0 l 688 0 l 688 211 z "},"F":{"ha":733,"x_min":0,"x_max":0,"o":"m 46 940 l 46 729 l 688 729 l 688 940 z m 46 601 l 46 0 l 257 0 l 257 390 l 556 390 l 556 601 z "},"G":{"ha":797,"x_min":0,"x_max":0,"o":"m 751 729 l 751 940 l 296 940 b 46 690 158 940 46 828 l 46 251 b 296 0 46 113 158 0 l 751 0 l 751 601 l 399 601 l 399 390 l 542 390 l 542 211 l 336 211 b 257 290 292 211 257 247 l 257 650 b 336 729 257 694 292 729 z "},"H":{"ha":797,"x_min":0,"x_max":0,"o":"m 751 940 l 540 940 l 540 601 l 256 601 l 256 940 l 46 940 l 46 0 l 256 0 l 256 390 l 540 390 l 540 0 l 751 0 z "},"I":{"ha":600,"x_min":0,"x_max":0,"o":"m 554 729 l 554 940 l 46 940 l 46 729 l 194 729 l 194 211 l 46 211 l 46 0 l 554 0 l 554 211 l 406 211 l 406 729 z "},"J":{"ha":713,"x_min":0,"x_max":0,"o":"m 46 940 l 46 729 l 456 729 l 456 290 b 376 211 456 247 421 211 l 257 211 l 257 390 l 46 390 l 46 0 l 417 0 b 667 251 554 0 667 113 l 667 940 z "},"K":{"ha":799,"x_min":0,"x_max":0,"o":"m 753 940 l 542 940 l 542 729 b 504 639 542 694 526 663 b 413 601 481 615 449 601 l 257 601 l 257 940 l 46 940 l 46 0 l 257 0 l 257 390 l 385 126 b 586 0 422 50 500 0 l 753 0 l 753 211 l 619 211 b 560 249 594 211 571 226 l 488 399 b 753 729 639 432 753 568 z "},"L":{"ha":624,"x_min":0,"x_max":0,"o":"m 257 211 l 257 940 l 46 940 l 46 0 l 578 0 l 578 211 z "},"M":{"ha":947,"x_min":0,"x_max":0,"o":"m 665 940 l 474 557 l 282 940 l 46 940 l 46 0 l 257 0 l 257 519 l 474 86 l 690 519 l 690 0 l 901 0 l 901 940 z "},"N":{"ha":799,"x_min":0,"x_max":0,"o":"m 753 940 l 542 940 l 542 422 l 282 940 l 46 940 l 46 0 l 257 0 l 257 519 l 517 0 l 753 0 z "},"O":{"ha":797,"x_min":0,"x_max":0,"o":"m 296 940 b 46 690 158 940 46 828 l 46 251 b 296 0 46 113 158 0 l 501 0 b 751 251 640 0 751 113 l 751 690 b 501 940 751 828 640 940 z m 540 290 b 463 211 540 247 506 211 l 336 211 b 257 290 292 211 257 247 l 257 650 b 336 729 257 694 292 729 l 463 729 b 540 650 506 729 540 694 z "},"P":{"ha":799,"x_min":0,"x_max":0,"o":"m 46 940 l 46 729 l 542 729 b 504 639 542 694 526 663 b 413 601 481 615 449 601 l 46 601 l 46 0 l 257 0 l 257 390 l 413 390 b 753 729 600 390 753 542 l 753 940 z "},"Q":{"ha":799,"x_min":0,"x_max":0,"o":"m 297 940 b 46 690 158 940 46 828 l 46 251 b 294 0 46 114 157 1 l 294 -157 l 504 -157 l 504 0 b 753 251 642 1 753 114 l 753 690 b 501 940 753 828 640 940 z m 542 290 b 463 211 542 247 506 211 l 336 211 b 257 290 293 211 257 247 l 257 650 b 336 729 257 694 293 729 l 463 729 b 542 650 506 729 542 694 z "},"R":{"ha":797,"x_min":0,"x_max":0,"o":"m 751 940 l 46 940 l 46 729 l 540 729 b 503 639 540 694 526 663 b 413 601 481 615 447 601 l 46 601 l 46 0 l 257 0 l 257 390 l 385 126 b 586 0 422 49 500 0 l 751 0 l 751 211 l 619 211 b 560 249 593 211 571 225 l 488 399 b 751 729 639 432 751 568 z "},"S":{"ha":797,"x_min":0,"x_max":0,"o":"m 751 729 l 751 940 l 257 940 b 46 729 140 940 46 846 z m 501 0 b 751 251 640 0 751 113 l 751 350 b 501 601 751 489 640 601 l 49 601 b 296 390 67 481 172 390 l 461 390 b 540 311 506 390 540 354 l 540 290 b 461 211 540 247 506 211 l 46 211 l 46 0 z "},"T":{"ha":732,"x_min":0,"x_max":0,"o":"m 472 729 l 686 729 l 686 940 l 46 940 l 46 729 l 261 729 l 261 0 l 472 0 z "},"U":{"ha":799,"x_min":0,"x_max":0,"o":"m 542 940 l 542 290 b 463 211 542 247 507 211 l 336 211 b 257 290 293 211 257 247 l 257 940 l 46 940 l 46 238 b 283 0 46 107 153 0 l 515 0 b 753 238 646 0 753 107 l 753 940 z "},"V":{"ha":799,"x_min":0,"x_max":0,"o":"m 328 0 b 483 54 386 0 438 18 b 572 192 528 89 557 135 l 753 940 l 536 940 l 374 272 b 346 229 369 254 360 240 b 297 211 332 217 315 211 l 257 211 l 257 940 l 46 940 l 46 0 z "},"W":{"ha":947,"x_min":0,"x_max":0,"o":"m 474 383 l 644 44 b 714 0 657 17 685 0 l 901 0 l 901 940 l 690 940 l 690 422 l 474 854 l 257 422 l 257 940 l 46 940 l 46 0 l 233 0 b 304 44 264 0 290 17 z "},"X":{"ha":799,"x_min":0,"x_max":0,"o":"m 753 942 l 542 942 l 542 743 b 400 601 542 665 478 601 b 299 643 360 601 325 617 b 257 743 274 668 257 704 l 257 942 l 46 942 l 46 743 b 147 496 46 647 85 560 b 46 247 85 432 46 344 l 46 0 l 257 0 l 257 247 b 299 349 257 288 274 322 b 400 390 325 374 360 390 b 542 247 478 390 542 326 l 542 0 l 753 0 l 753 247 b 651 496 753 344 714 432 b 753 743 714 560 753 646 z "},"Y":{"ha":799,"x_min":0,"x_max":0,"o":"m 753 940 l 542 942 l 542 601 l 386 601 b 294 639 350 601 318 617 b 257 731 271 663 257 694 l 257 942 l 46 942 l 46 731 b 386 390 46 543 199 390 l 542 390 l 542 290 b 463 211 542 247 506 211 l 46 211 l 46 0 l 501 0 b 753 251 640 0 753 113 z "},"Z":{"ha":799,"x_min":0,"x_max":0,"o":"m 753 940 l 46 940 l 46 729 l 478 729 l 46 211 l 46 0 l 753 0 l 753 211 l 321 211 l 753 729 z "},"[":{"ha":450,"x_min":0,"x_max":0,"o":"m 404 983 l 404 1125 l 46 1125 l 46 -185 l 404 -185 l 404 -43 l 257 -43 l 257 983 z "},"\\":{"ha":585,"x_min":0,"x_max":0,"o":"m 46 940 l 388 0 l 539 0 l 197 940 z "},"]":{"ha":450,"x_min":0,"x_max":0,"o":"m 46 983 l 193 983 l 193 -43 l 46 -43 l 46 -185 l 404 -185 l 404 1125 l 46 1125 z "},"^":{"ha":461,"x_min":0,"x_max":0,"o":"m 231 1242 l 46 1089 l 106 1026 l 231 1113 l 356 1026 l 415 1089 z "},"_":{"ha":831,"x_min":0,"x_max":0,"o":"m 785 0 l 785 142 l 46 142 l 46 0 z "},"`":{"ha":356,"x_min":0,"x_max":0,"o":"m 46 1168 l 267 1026 l 310 1081 l 114 1250 z "},"a":{"ha":797,"x_min":0,"x_max":0,"o":"m 46 0 l 256 0 l 256 390 l 540 390 l 540 0 l 751 0 l 751 940 l 296 940 b 46 690 157 940 46 829 z m 256 651 b 335 731 256 694 292 731 l 540 731 l 540 601 l 256 601 z "},"b":{"ha":799,"x_min":0,"x_max":0,"o":"m 753 261 b 658 496 753 351 717 435 b 753 731 717 557 753 639 l 753 940 l 46 940 l 46 0 l 753 0 z m 257 731 l 542 731 b 504 639 542 694 528 663 b 413 601 481 615 449 601 l 257 601 z m 542 211 l 257 211 l 257 390 l 413 390 b 542 261 483 390 542 333 z "},"c":{"ha":799,"x_min":0,"x_max":0,"o":"m 753 601 l 753 940 l 297 940 b 46 690 158 940 46 829 l 46 251 b 297 0 46 113 158 0 l 753 0 l 753 390 l 542 390 l 542 211 l 336 211 b 257 290 293 211 257 247 l 257 651 b 336 731 257 694 293 731 l 542 731 l 542 601 z "},"d":{"ha":797,"x_min":0,"x_max":0,"o":"m 46 940 l 46 0 l 501 0 b 751 251 640 0 751 113 l 751 690 b 501 940 751 829 640 940 z m 540 290 b 463 211 540 247 506 211 l 257 211 l 257 731 l 463 731 b 540 651 506 731 540 694 z "},"e":{"ha":733,"x_min":0,"x_max":0,"o":"m 688 940 l 46 940 l 46 0 l 688 0 l 688 211 l 257 211 l 257 390 l 556 390 l 556 601 l 257 601 l 257 729 l 688 729 z "},"f":{"ha":733,"x_min":0,"x_max":0,"o":"m 688 731 l 688 940 l 46 940 l 46 0 l 257 0 l 257 390 l 556 390 l 556 601 l 257 601 l 257 731 z "},"g":{"ha":799,"x_min":0,"x_max":0,"o":"m 753 731 l 753 940 l 297 940 b 46 690 158 940 46 829 l 46 251 b 297 0 46 113 158 0 l 753 0 l 753 601 l 399 601 l 399 390 l 542 390 l 542 211 l 336 211 b 257 290 293 211 257 247 l 257 651 b 336 731 257 694 293 731 z "},"h":{"ha":797,"x_min":0,"x_max":0,"o":"m 751 942 l 540 942 l 540 601 l 257 601 l 257 942 l 46 942 l 46 0 l 257 0 l 257 390 l 540 390 l 540 0 l 751 0 z "},"i":{"ha":600,"x_min":0,"x_max":0,"o":"m 554 731 l 554 942 l 46 942 l 46 731 l 194 731 l 194 211 l 46 211 l 46 0 l 554 0 l 554 211 l 406 211 l 406 731 z "},"j":{"ha":713,"x_min":0,"x_max":0,"o":"m 46 940 l 46 729 l 456 729 l 456 290 b 376 211 456 247 421 211 l 257 211 l 257 390 l 46 390 l 46 0 l 417 0 b 667 251 554 0 667 113 l 667 940 z "},"k":{"ha":799,"x_min":0,"x_max":0,"o":"m 753 940 l 542 940 l 542 729 b 504 639 542 694 526 663 b 413 601 481 615 449 601 l 257 601 l 257 940 l 46 940 l 46 0 l 257 0 l 257 390 l 385 126 b 586 0 422 50 500 0 l 753 0 l 753 211 l 619 211 b 560 249 594 211 571 226 l 488 399 b 753 729 639 432 753 568 z "},"l":{"ha":624,"x_min":0,"x_max":0,"o":"m 257 211 l 257 940 l 46 940 l 46 0 l 578 0 l 578 211 z "},"m":{"ha":947,"x_min":0,"x_max":0,"o":"m 665 940 l 474 557 l 282 940 l 46 940 l 46 0 l 257 0 l 257 519 l 474 86 l 690 519 l 690 0 l 901 0 l 901 940 z "},"n":{"ha":799,"x_min":0,"x_max":0,"o":"m 753 940 l 542 940 l 542 422 l 282 940 l 46 940 l 46 0 l 257 0 l 257 519 l 517 0 l 753 0 z "},"o":{"ha":797,"x_min":0,"x_max":0,"o":"m 296 940 b 46 690 158 940 46 828 l 46 251 b 296 0 46 113 158 0 l 501 0 b 751 251 640 0 751 113 l 751 690 b 501 940 751 828 640 940 z m 540 290 b 463 211 540 247 506 211 l 336 211 b 257 290 292 211 257 247 l 257 650 b 336 729 257 694 292 729 l 463 729 b 540 650 506 729 540 694 z "},"p":{"ha":799,"x_min":0,"x_max":0,"o":"m 46 940 l 46 0 l 257 0 l 257 390 l 413 390 b 753 731 600 390 753 543 l 753 940 z m 504 639 b 413 601 481 615 449 601 l 257 601 l 257 731 l 542 731 b 504 639 542 694 528 663 z "},"q":{"ha":799,"x_min":0,"x_max":0,"o":"m 297 940 b 46 690 158 940 46 829 l 46 251 b 294 1 46 114 157 3 l 294 -157 l 506 -157 l 506 1 b 753 251 642 3 753 114 l 753 690 b 503 940 753 829 640 940 z m 542 290 b 463 211 542 247 507 211 l 336 211 b 257 290 293 211 257 247 l 257 651 b 336 731 257 694 293 731 l 463 731 b 542 651 507 731 542 694 z "},"r":{"ha":799,"x_min":0,"x_max":0,"o":"m 753 940 l 46 940 l 46 0 l 257 0 l 257 390 l 385 126 b 586 0 422 50 500 0 l 753 0 l 753 211 l 619 211 b 560 249 594 211 571 226 l 488 399 b 753 731 639 433 753 568 z m 504 639 b 413 601 481 615 449 601 l 257 601 l 257 731 l 542 731 b 504 639 542 694 526 663 z "},"s":{"ha":797,"x_min":0,"x_max":0,"o":"m 501 0 b 679 74 571 0 631 25 b 751 251 728 122 751 182 l 751 350 b 679 528 751 419 728 479 b 501 601 631 576 571 601 l 336 601 b 281 625 314 601 296 610 b 263 665 268 636 263 650 b 279 706 263 681 268 693 b 335 729 294 721 313 729 l 751 729 l 751 940 l 257 940 b 108 879 199 940 149 919 b 46 729 67 838 46 788 b 49 601 46 658 47 615 l 50 593 b 135 450 63 535 90 488 b 296 390 181 410 235 390 l 461 390 b 518 367 483 390 503 382 b 540 311 533 351 540 332 l 540 290 b 518 235 540 268 533 250 b 461 211 503 219 483 211 l 46 211 l 46 0 z "},"t":{"ha":732,"x_min":0,"x_max":0,"o":"m 472 731 l 686 731 l 686 940 l 46 940 l 46 731 l 261 731 l 261 0 l 472 0 z "},"u":{"ha":799,"x_min":0,"x_max":0,"o":"m 542 940 l 542 290 b 463 211 542 247 507 211 l 336 211 b 257 290 293 211 257 247 l 257 940 l 46 940 l 46 238 b 283 0 46 107 153 0 l 515 0 b 753 238 646 0 753 107 l 753 940 z "},"v":{"ha":799,"x_min":0,"x_max":0,"o":"m 328 0 b 483 54 386 0 438 18 b 572 192 528 89 557 135 l 753 940 l 536 940 l 374 272 b 346 229 369 254 360 240 b 297 211 332 217 315 211 l 257 211 l 257 940 l 46 940 l 46 0 z "},"w":{"ha":947,"x_min":0,"x_max":0,"o":"m 474 383 l 644 44 b 714 0 657 17 685 0 l 901 0 l 901 940 l 690 940 l 690 422 l 474 854 l 257 422 l 257 940 l 46 940 l 46 0 l 233 0 b 304 44 264 0 290 17 z "},"x":{"ha":799,"x_min":0,"x_max":0,"o":"m 753 942 l 542 942 l 542 743 b 400 601 542 665 478 601 b 299 643 360 601 325 617 b 257 743 274 668 257 704 l 257 942 l 46 942 l 46 743 b 147 496 46 647 85 560 b 46 247 85 432 46 344 l 46 0 l 257 0 l 257 247 b 299 349 257 288 274 322 b 400 390 325 374 360 390 b 542 247 478 390 542 326 l 542 0 l 753 0 l 753 247 b 651 496 753 344 714 432 b 753 743 714 560 753 646 z "},"y":{"ha":799,"x_min":0,"x_max":0,"o":"m 753 940 l 542 942 l 542 601 l 386 601 b 294 639 350 601 318 617 b 257 731 271 663 257 694 l 257 942 l 46 942 l 46 731 b 386 390 46 543 199 390 l 542 390 l 542 290 b 463 211 542 247 506 211 l 46 211 l 46 0 l 501 0 b 753 251 640 0 753 113 z "},"z":{"ha":799,"x_min":0,"x_max":0,"o":"m 753 940 l 46 940 l 46 729 l 478 729 l 46 211 l 46 0 l 753 0 l 753 211 l 321 211 l 753 729 z "},"{":{"ha":624,"x_min":0,"x_max":0,"o":"m 431 904 b 510 983 431 947 467 983 l 578 983 l 578 1125 l 471 1125 b 219 875 332 1125 219 1013 l 219 694 b 143 542 219 633 192 578 l 46 471 l 143 399 b 219 246 192 364 219 307 l 219 67 b 471 -185 219 -72 332 -185 l 578 -185 l 578 -43 l 510 -43 b 431 36 467 -43 431 -7 l 431 183 b 286 471 431 297 376 403 b 431 757 378 538 431 644 z "},"|":{"ha":233,"x_min":0,"x_max":0,"o":"m 46 0 l 188 0 l 188 940 l 46 940 z "},"}":{"ha":624,"x_min":0,"x_max":0,"o":"m 192 757 b 336 471 192 644 246 538 l 338 471 b 192 183 246 403 192 297 l 192 36 b 113 -43 192 -7 156 -43 l 46 -43 l 46 -185 l 151 -185 b 403 67 290 -185 403 -72 l 403 246 b 481 399 403 307 432 364 l 578 471 l 481 542 b 403 694 432 578 403 633 l 403 875 b 151 1125 403 1013 290 1125 l 46 1125 l 46 983 l 113 983 b 192 904 156 983 192 947 z "},"~":{"ha":488,"x_min":0,"x_max":0,"o":"m 442 451 l 369 524 b 319 489 360 511 340 492 l 313 489 b 271 511 300 489 286 496 b 168 560 233 549 196 560 b 151 558 161 560 157 560 b 46 494 110 554 68 525 l 110 421 b 161 454 119 433 140 453 l 168 454 b 211 432 182 454 196 446 b 304 383 244 397 278 386 b 331 385 314 383 324 383 b 442 451 371 390 411 410 z "},"¡":{"ha":303,"x_min":0,"x_max":0,"o":"m 192 364 b 257 431 228 364 257 393 l 257 510 b 192 575 257 546 228 575 l 113 575 b 46 510 76 575 46 546 l 46 431 b 113 364 46 393 76 364 z m 46 -365 l 257 -365 l 257 288 l 46 288 z "},"¢":{"ha":799,"x_min":0,"x_max":0,"o":"m 753 601 l 753 940 l 471 940 l 471 1097 l 329 1097 l 329 940 l 297 940 b 46 690 158 940 46 828 l 46 251 b 297 0 46 113 158 0 l 329 0 l 329 -157 l 471 -157 l 471 0 l 753 0 l 753 390 l 542 390 l 542 211 l 329 211 b 257 290 289 215 257 250 l 257 650 b 329 729 257 692 289 725 l 542 729 l 542 601 z "},"£":{"ha":807,"x_min":0,"x_max":0,"o":"m 376 211 l 376 400 l 554 401 l 554 543 l 376 542 l 376 650 b 456 729 376 694 411 729 l 658 729 l 658 940 l 415 940 b 165 690 276 940 165 828 l 165 540 l 46 540 l 46 399 l 165 399 l 165 0 l 761 0 l 761 211 z "},"¤":{"ha":658,"x_min":0,"x_max":0,"o":"m 590 471 b 557 597 590 517 578 560 l 613 653 l 513 754 l 456 697 b 329 732 418 719 375 732 b 201 697 283 732 239 719 l 146 754 l 46 653 l 101 597 b 68 471 81 560 68 517 b 101 343 68 424 79 381 l 46 288 l 146 186 l 201 243 b 329 210 239 221 283 210 b 456 243 375 210 418 221 l 513 186 l 613 288 l 557 343 b 590 471 578 381 590 424 z m 354 343 b 329 342 346 342 338 342 b 303 343 319 342 311 342 b 203 444 253 354 213 394 b 200 471 200 453 200 461 b 203 496 200 479 200 488 b 303 597 213 547 253 586 b 329 600 311 599 319 600 b 356 597 338 600 347 599 b 456 496 406 586 444 547 b 458 471 457 488 458 479 b 456 444 458 461 457 453 b 356 343 444 394 406 354 z "},"¥":{"ha":799,"x_min":0,"x_max":0,"o":"m 542 940 l 542 681 b 463 601 542 638 506 601 l 336 601 b 257 681 292 601 257 638 l 257 940 l 46 940 l 46 628 b 283 390 46 497 153 390 l 293 390 l 293 347 l 165 347 l 165 249 l 293 249 l 293 196 l 164 194 l 164 96 l 293 96 l 293 0 l 504 0 l 504 96 l 633 96 l 633 196 l 504 196 l 504 249 l 633 249 l 633 349 l 504 349 l 504 390 l 515 390 b 753 628 646 390 753 497 l 753 940 z "},"¦":{"ha":233,"x_min":0,"x_max":0,"o":"m 46 940 l 46 561 l 188 561 l 188 940 z m 46 0 l 188 0 l 188 379 l 46 379 z "},"§":{"ha":611,"x_min":0,"x_max":0,"o":"m 565 785 l 565 940 l 231 940 b 46 756 129 940 46 858 l 46 719 b 81 614 46 681 60 643 b 46 507 60 583 46 547 l 46 471 b 231 286 46 369 129 286 l 353 286 b 411 228 385 286 411 260 l 411 214 b 353 156 411 181 385 156 l 46 156 l 46 0 l 382 0 b 565 185 483 0 565 82 l 565 257 b 543 346 565 289 557 319 b 565 433 557 372 565 401 l 565 507 b 382 690 565 608 483 690 l 244 692 b 201 738 221 693 201 714 b 215 771 201 751 207 763 b 249 785 224 781 236 785 z m 411 463 b 406 440 411 454 408 447 b 382 442 397 440 390 442 l 249 442 b 201 489 222 442 201 463 b 215 522 201 501 207 514 b 244 536 224 529 233 535 l 353 536 b 411 478 385 536 411 510 z "},"¨":{"ha":582,"x_min":0,"x_max":0,"o":"m 60 1026 l 244 1026 b 257 1040 251 1026 257 1032 l 257 1224 b 244 1238 257 1232 251 1238 l 60 1238 b 46 1224 53 1238 46 1232 l 46 1040 b 60 1026 46 1032 53 1026 z m 339 1026 l 524 1026 b 536 1040 531 1026 536 1032 l 536 1224 b 524 1238 536 1232 531 1238 l 339 1238 b 325 1224 332 1238 325 1232 l 325 1040 b 339 1026 325 1032 332 1026 z "},"©":{"ha":938,"x_min":0,"x_max":0,"o":"m 219 47 l 718 47 b 892 221 814 47 892 125 l 892 719 b 718 893 892 815 814 893 l 219 893 b 46 719 124 893 46 815 l 46 221 b 219 47 46 125 124 47 z m 219 788 l 718 788 b 786 719 756 788 786 757 l 786 221 b 718 153 786 183 756 153 l 219 153 b 151 221 182 153 151 183 l 151 719 b 219 788 151 757 182 788 z m 647 536 l 647 707 l 422 707 b 290 575 350 707 290 649 l 290 365 b 422 233 290 293 350 233 l 647 233 l 647 429 l 540 429 l 540 340 l 436 340 b 397 379 415 340 397 357 l 397 561 b 436 601 397 583 415 601 l 540 601 l 540 536 z "},"ª":{"ha":300,"x_min":0,"x_max":0,"o":"m 124 940 b 46 864 81 940 46 906 l 46 740 b 124 664 46 699 81 664 l 254 664 l 254 940 z m 192 726 l 131 726 b 108 749 118 726 108 736 l 108 856 b 131 878 108 868 118 878 l 192 878 z "},"«":{"ha":839,"x_min":0,"x_max":0,"o":"m 793 767 l 389 471 l 793 174 l 793 350 l 629 471 l 793 590 z m 450 767 l 46 471 l 450 174 l 450 350 l 286 471 l 450 590 z "},"¬":{"ha":926,"x_min":0,"x_max":0,"o":"m 881 542 l 46 542 l 46 399 l 739 399 l 739 171 l 881 171 z "},"®":{"ha":938,"x_min":0,"x_max":0,"o":"m 219 47 l 718 47 b 892 221 814 47 892 125 l 892 719 b 718 893 892 815 814 893 l 219 893 b 46 719 124 893 46 815 l 46 221 b 219 47 46 125 124 47 z m 219 789 l 718 789 b 786 722 756 789 786 758 l 786 224 b 718 156 786 186 756 156 l 219 156 b 151 224 182 156 151 186 l 151 722 b 219 789 151 758 182 789 z m 647 707 l 290 707 l 290 233 l 397 233 l 397 429 l 461 297 b 563 233 481 258 519 233 l 647 233 l 647 340 l 579 340 b 550 358 567 340 556 347 l 513 433 b 647 601 589 451 647 519 z m 521 556 b 475 536 510 544 493 536 l 397 536 l 397 601 l 540 601 b 521 556 540 583 533 568 z "},"¯":{"ha":446,"x_min":0,"x_max":0,"o":"m 400 1114 l 46 1114 l 46 1026 l 400 1026 z "},"°":{"ha":374,"x_min":0,"x_max":0,"o":"m 186 1026 b 328 1167 264 1026 328 1089 b 186 1308 328 1244 264 1308 b 46 1167 108 1308 46 1244 b 186 1026 46 1089 108 1026 z m 186 1229 b 249 1167 221 1229 249 1201 b 186 1106 249 1133 221 1106 b 125 1167 153 1106 125 1133 b 186 1229 125 1201 153 1229 z "},"±":{"ha":600,"x_min":0,"x_max":0,"o":"m 554 632 l 371 632 l 371 815 l 229 815 l 229 632 l 46 632 l 46 489 l 229 489 l 229 306 l 371 306 l 371 489 l 554 489 z m 554 126 l 554 269 l 46 269 l 46 126 z "},"²":{"ha":300,"x_min":0,"x_max":0,"o":"m 224 778 b 254 833 242 790 253 811 l 254 867 b 181 940 254 907 221 940 l 46 940 l 46 840 l 108 840 l 108 878 l 168 878 b 192 856 182 878 192 868 l 192 843 b 183 825 192 836 189 829 l 182 824 l 47 726 l 46 725 l 46 664 l 254 664 l 254 726 l 153 726 z "},"³":{"ha":299,"x_min":0,"x_max":0,"o":"m 232 878 l 232 940 l 46 940 l 46 878 l 129 878 l 79 840 l 79 778 l 168 778 b 192 756 181 778 192 768 l 192 749 b 168 726 192 736 181 726 l 46 726 l 46 664 l 179 664 b 253 738 219 664 253 697 l 253 767 b 182 840 253 807 221 839 z "},"´":{"ha":356,"x_min":0,"x_max":0,"o":"m 310 1168 l 240 1250 l 46 1081 l 89 1026 z "},"µ":{"ha":799,"x_min":0,"x_max":0,"o":"m 257 290 l 257 940 l 46 940 l 46 -157 l 257 -157 l 257 1 b 283 0 265 0 275 0 l 515 0 b 683 69 581 0 638 24 b 753 238 729 115 753 172 l 753 940 l 542 940 l 542 290 b 519 235 542 268 535 250 b 463 211 504 219 485 211 l 336 211 b 281 235 315 211 296 219 b 257 290 265 249 257 268 z "},"¶":{"ha":775,"x_min":0,"x_max":0,"o":"m 729 940 l 221 940 b 46 765 124 940 46 863 l 46 671 b 221 496 46 574 124 496 l 274 496 l 274 0 l 415 0 l 415 799 l 501 799 l 501 0 l 644 0 l 644 799 l 729 799 z "},"·":{"ha":303,"x_min":0,"x_max":0,"o":"m 60 365 l 244 365 b 257 378 251 365 257 371 l 257 563 b 244 576 257 569 251 576 l 60 576 b 46 563 53 576 46 569 l 46 378 b 60 365 46 371 53 365 z "},"∙":{"ha":303,"x_min":0,"x_max":0,"o":"m 60 365 l 244 365 b 257 378 251 365 257 371 l 257 563 b 244 576 257 569 251 576 l 60 576 b 46 563 53 576 46 569 l 46 378 b 60 365 46 371 53 365 z "},"¸":{"ha":365,"x_min":0,"x_max":0,"o":"m 218 85 l 132 85 l 132 -122 b 157 -121 132 -122 142 -121 b 240 -161 189 -121 240 -126 b 175 -200 240 -181 213 -200 b 111 -168 142 -200 115 -183 l 46 -215 b 175 -279 69 -254 118 -279 b 319 -161 256 -279 319 -228 b 218 -49 319 -92 278 -62 z "},"¹":{"ha":189,"x_min":0,"x_max":0,"o":"m 46 940 l 46 878 l 81 878 l 81 664 l 143 664 l 143 940 z "},"º":{"ha":299,"x_min":0,"x_max":0,"o":"m 119 940 b 46 867 78 940 46 907 l 46 738 b 119 664 46 697 78 664 l 179 664 b 253 738 221 664 253 697 l 253 867 b 179 940 253 907 221 940 z m 165 878 l 107 754 l 107 856 b 131 878 107 868 118 878 z m 132 726 l 192 854 l 192 749 b 168 726 192 736 181 726 z "},"»":{"ha":839,"x_min":0,"x_max":0,"o":"m 46 767 l 46 590 l 210 471 l 46 350 l 46 174 l 450 471 z m 389 767 l 389 590 l 553 471 l 389 350 l 389 174 l 793 471 z "},"¼":{"ha":761,"x_min":0,"x_max":0,"o":"m 715 408 l 624 408 l 624 215 l 535 215 b 500 250 515 215 500 231 l 500 408 l 408 408 l 408 232 b 517 124 408 172 457 124 l 624 124 l 624 0 l 715 0 z m 522 940 l 411 940 l 69 0 l 182 0 z m 46 940 l 46 849 l 97 849 l 97 532 l 189 532 l 189 940 z "},"½":{"ha":769,"x_min":0,"x_max":0,"o":"m 413 940 l 71 0 l 183 0 l 524 940 z m 679 168 b 724 251 704 188 721 217 l 724 300 b 614 408 724 360 675 408 l 417 408 l 417 261 l 508 261 l 508 317 l 597 317 b 632 282 617 317 632 301 l 632 265 b 618 239 632 254 626 244 l 617 236 l 418 92 l 417 90 l 417 0 l 724 0 l 724 92 l 574 92 z m 99 532 l 190 532 l 190 940 l 46 940 l 46 849 l 99 849 z "},"¾":{"ha":890,"x_min":0,"x_max":0,"o":"m 353 683 b 249 793 353 743 307 790 l 322 849 l 322 940 l 46 940 l 46 849 l 169 849 l 97 793 l 97 701 l 226 701 b 261 667 246 701 261 686 l 261 658 b 226 624 261 639 246 624 l 46 624 l 46 532 l 244 532 b 353 640 304 532 353 581 z m 844 408 l 753 408 l 753 215 l 664 215 b 629 250 644 215 629 231 l 629 408 l 538 408 l 538 232 b 647 124 538 172 586 124 l 753 124 l 753 0 l 844 0 z m 540 940 l 200 0 l 311 0 l 653 940 z "},"¿":{"ha":799,"x_min":0,"x_max":0,"o":"m 524 364 b 589 431 560 364 589 393 l 589 510 b 524 575 589 546 560 575 l 444 575 b 378 510 407 575 378 546 l 378 431 b 444 364 378 393 407 364 z m 753 -365 l 753 -154 l 321 -154 b 257 -90 286 -154 257 -125 b 275 -44 257 -72 264 -56 b 321 -26 288 -33 303 -26 l 589 -26 l 589 288 l 378 288 l 378 185 l 296 185 b 46 -65 158 185 46 74 l 46 -115 b 296 -365 46 -253 158 -365 z "},"À":{"ha":799,"x_min":0,"x_max":0,"o":"m 46 940 l 46 729 l 463 729 b 542 650 506 729 542 694 l 542 601 l 46 601 l 46 0 l 257 0 l 257 390 l 542 390 l 542 0 l 753 0 l 753 690 b 501 940 753 828 640 940 z m 226 1168 l 447 1026 l 490 1081 l 294 1250 z "},"Á":{"ha":799,"x_min":0,"x_max":0,"o":"m 46 940 l 46 729 l 463 729 b 542 650 506 729 542 694 l 542 601 l 46 601 l 46 0 l 257 0 l 257 390 l 542 390 l 542 0 l 753 0 l 753 690 b 501 940 753 828 640 940 z m 578 1168 l 508 1250 l 314 1081 l 357 1026 z "},"Â":{"ha":799,"x_min":0,"x_max":0,"o":"m 46 940 l 46 729 l 463 729 b 542 650 506 729 542 694 l 542 601 l 46 601 l 46 0 l 257 0 l 257 390 l 542 390 l 542 0 l 753 0 l 753 690 b 501 940 753 828 640 940 z m 401 1242 l 217 1089 l 276 1026 l 401 1113 l 526 1026 l 586 1089 z "},"Ã":{"ha":799,"x_min":0,"x_max":0,"o":"m 46 940 l 46 729 l 463 729 b 542 650 506 729 542 694 l 542 601 l 46 601 l 46 0 l 257 0 l 257 390 l 542 390 l 542 0 l 753 0 l 753 690 b 501 940 753 828 640 940 z m 599 1094 l 526 1167 b 476 1132 517 1154 497 1135 l 469 1132 b 428 1154 457 1132 443 1139 b 325 1203 390 1192 353 1203 b 308 1201 318 1203 314 1203 b 203 1138 267 1197 225 1168 l 267 1064 b 318 1097 276 1076 297 1096 l 325 1097 b 368 1075 339 1097 353 1089 b 461 1026 401 1040 435 1029 b 488 1028 471 1026 481 1026 b 599 1094 528 1033 568 1053 z "},"Ä":{"ha":799,"x_min":0,"x_max":0,"o":"m 46 940 l 46 729 l 463 729 b 542 650 506 729 542 694 l 542 601 l 46 601 l 46 0 l 257 0 l 257 390 l 542 390 l 542 0 l 753 0 l 753 690 b 501 940 753 828 640 940 z m 169 1026 l 354 1026 b 367 1040 361 1026 367 1032 l 367 1224 b 354 1238 367 1232 361 1238 l 169 1238 b 156 1224 163 1238 156 1232 l 156 1040 b 169 1026 156 1032 163 1026 z m 449 1026 l 633 1026 b 646 1040 640 1026 646 1032 l 646 1224 b 633 1238 646 1232 640 1238 l 449 1238 b 435 1224 442 1238 435 1232 l 435 1040 b 449 1026 435 1032 442 1026 z "},"Å":{"ha":799,"x_min":0,"x_max":0,"o":"m 46 940 l 46 729 l 463 729 b 542 650 506 729 542 694 l 542 601 l 46 601 l 46 0 l 257 0 l 257 390 l 542 390 l 542 0 l 753 0 l 753 690 b 501 940 753 828 640 940 z m 401 1026 b 543 1167 479 1026 543 1089 b 401 1308 543 1244 479 1308 b 261 1167 324 1308 261 1244 b 401 1026 261 1089 324 1026 z m 401 1229 b 464 1167 436 1229 464 1201 b 401 1106 464 1133 436 1106 b 340 1167 368 1106 340 1133 b 401 1229 340 1201 368 1229 z "},"Æ":{"ha":1231,"x_min":0,"x_max":0,"o":"m 1185 940 l 46 940 l 46 729 l 463 729 b 519 707 485 729 504 722 b 542 650 535 692 542 672 l 542 601 l 46 601 l 46 0 l 257 0 l 257 390 l 542 390 l 542 0 l 1185 0 l 1185 211 l 754 211 l 754 390 l 1053 390 l 1053 601 l 753 601 l 753 729 l 1185 729 z "},"Ç":{"ha":799,"x_min":0,"x_max":0,"o":"m 386 0 l 386 -122 l 389 -122 b 393 -121 390 -122 392 -122 l 411 -121 b 465 -128 426 -121 444 -124 b 494 -161 485 -132 494 -143 b 476 -187 494 -171 489 -179 b 429 -200 464 -196 447 -200 b 388 -190 413 -200 399 -197 b 365 -168 375 -183 368 -176 l 300 -215 b 429 -279 329 -258 372 -279 b 532 -244 469 -279 504 -268 b 574 -161 560 -222 574 -194 b 546 -83 574 -126 564 -100 b 472 -49 528 -67 503 -56 l 472 0 l 753 0 l 753 390 l 542 390 l 542 211 l 336 211 b 281 235 314 211 296 219 b 257 290 265 250 257 268 l 257 650 b 281 707 257 672 265 692 b 336 729 296 722 314 729 l 542 729 l 542 601 l 753 601 l 753 940 l 296 940 b 119 867 228 940 168 915 b 46 690 71 818 46 758 l 46 251 b 119 74 46 182 71 122 b 296 0 168 25 228 0 z "},"È":{"ha":733,"x_min":0,"x_max":0,"o":"m 688 729 l 688 940 l 46 940 l 46 729 z m 257 211 l 257 390 l 556 390 l 556 601 l 46 601 l 46 0 l 688 0 l 688 211 z m 192 1168 l 413 1026 l 456 1081 l 260 1250 z "},"É":{"ha":733,"x_min":0,"x_max":0,"o":"m 688 729 l 688 940 l 46 940 l 46 729 z m 257 211 l 257 390 l 556 390 l 556 601 l 46 601 l 46 0 l 688 0 l 688 211 z m 543 1168 l 474 1250 l 279 1081 l 322 1026 z "},"Ê":{"ha":733,"x_min":0,"x_max":0,"o":"m 688 729 l 688 940 l 46 940 l 46 729 z m 257 211 l 257 390 l 556 390 l 556 601 l 46 601 l 46 0 l 688 0 l 688 211 z m 367 1242 l 182 1089 l 242 1026 l 367 1113 l 492 1026 l 551 1089 z "},"Ë":{"ha":733,"x_min":0,"x_max":0,"o":"m 688 729 l 688 940 l 46 940 l 46 729 z m 257 211 l 257 390 l 556 390 l 556 601 l 46 601 l 46 0 l 688 0 l 688 211 z m 135 1026 l 319 1026 b 332 1040 326 1026 332 1032 l 332 1224 b 319 1238 332 1232 326 1238 l 135 1238 b 121 1224 128 1238 121 1232 l 121 1040 b 135 1026 121 1032 128 1026 z m 414 1026 l 599 1026 b 611 1040 606 1026 611 1032 l 611 1224 b 599 1238 611 1232 606 1238 l 414 1238 b 400 1224 407 1238 400 1232 l 400 1040 b 414 1026 400 1032 407 1026 z "},"Ì":{"ha":600,"x_min":0,"x_max":0,"o":"m 554 729 l 554 940 l 46 940 l 46 729 l 194 729 l 194 211 l 46 211 l 46 0 l 554 0 l 554 211 l 406 211 l 406 729 z m 125 1168 l 346 1026 l 389 1081 l 193 1250 z "},"Í":{"ha":600,"x_min":0,"x_max":0,"o":"m 554 729 l 554 940 l 46 940 l 46 729 l 194 729 l 194 211 l 46 211 l 46 0 l 554 0 l 554 211 l 406 211 l 406 729 z m 476 1168 l 407 1250 l 213 1081 l 256 1026 z "},"Î":{"ha":600,"x_min":0,"x_max":0,"o":"m 554 729 l 554 940 l 46 940 l 46 729 l 194 729 l 194 211 l 46 211 l 46 0 l 554 0 l 554 211 l 406 211 l 406 729 z m 300 1242 l 115 1089 l 175 1026 l 300 1113 l 425 1026 l 485 1089 z "},"Ï":{"ha":600,"x_min":0,"x_max":0,"o":"m 554 729 l 554 940 l 46 940 l 46 729 l 194 729 l 194 211 l 46 211 l 46 0 l 554 0 l 554 211 l 406 211 l 406 729 z m 68 1026 l 253 1026 b 265 1040 260 1026 265 1032 l 265 1224 b 253 1238 265 1232 260 1238 l 68 1238 b 54 1224 61 1238 54 1232 l 54 1040 b 68 1026 54 1032 61 1026 z m 347 1026 l 532 1026 b 544 1040 539 1026 544 1032 l 544 1224 b 532 1238 544 1232 539 1238 l 347 1238 b 333 1224 340 1238 333 1232 l 333 1040 b 347 1026 333 1032 340 1026 z "},"Ð":{"ha":797,"x_min":0,"x_max":0,"o":"m 257 399 l 403 399 l 403 542 l 257 542 l 257 601 l 46 601 l 46 542 l -117 542 l -117 399 l 46 399 l 46 0 l 501 0 b 679 74 571 0 631 25 b 751 251 728 122 751 182 l 751 690 b 679 867 751 758 728 818 b 501 940 631 915 571 940 l 46 940 l 46 729 l 461 729 b 518 707 483 729 503 722 b 540 650 533 692 540 672 l 540 290 b 518 235 540 268 533 250 b 461 211 503 219 483 211 l 257 211 z "},"Ñ":{"ha":799,"x_min":0,"x_max":0,"o":"m 753 940 l 542 940 l 542 422 l 282 940 l 46 940 l 46 0 l 257 0 l 257 519 l 517 0 l 753 0 z m 597 1094 l 525 1167 b 475 1132 515 1154 496 1135 l 468 1132 b 426 1154 456 1132 442 1139 b 324 1203 389 1192 351 1203 b 307 1201 317 1203 313 1203 b 201 1138 265 1197 224 1168 l 265 1064 b 317 1097 275 1076 296 1096 l 324 1097 b 367 1075 338 1097 351 1089 b 460 1026 400 1040 433 1029 b 486 1028 469 1026 479 1026 b 597 1094 526 1033 567 1053 z "},"Ò":{"ha":797,"x_min":0,"x_max":0,"o":"m 296 940 b 46 690 158 940 46 828 l 46 251 b 296 0 46 113 158 0 l 501 0 b 751 251 640 0 751 113 l 751 690 b 501 940 751 828 640 940 z m 540 290 b 463 211 540 247 506 211 l 336 211 b 257 290 292 211 257 247 l 257 650 b 336 729 257 694 292 729 l 463 729 b 540 650 506 729 540 694 z m 224 1168 l 444 1026 l 488 1081 l 292 1250 z "},"Ó":{"ha":797,"x_min":0,"x_max":0,"o":"m 296 940 b 46 690 158 940 46 828 l 46 251 b 296 0 46 113 158 0 l 501 0 b 751 251 640 0 751 113 l 751 690 b 501 940 751 828 640 940 z m 540 290 b 463 211 540 247 506 211 l 336 211 b 257 290 292 211 257 247 l 257 650 b 336 729 257 694 292 729 l 463 729 b 540 650 506 729 540 694 z m 575 1168 l 506 1250 l 311 1081 l 354 1026 z "},"Ô":{"ha":797,"x_min":0,"x_max":0,"o":"m 296 940 b 46 690 158 940 46 828 l 46 251 b 296 0 46 113 158 0 l 501 0 b 751 251 640 0 751 113 l 751 690 b 501 940 751 828 640 940 z m 540 290 b 463 211 540 247 506 211 l 336 211 b 257 290 292 211 257 247 l 257 650 b 336 729 257 694 292 729 l 463 729 b 540 650 506 729 540 694 z m 399 1242 l 214 1089 l 274 1026 l 399 1113 l 524 1026 l 583 1089 z "},"Õ":{"ha":797,"x_min":0,"x_max":0,"o":"m 296 940 b 46 690 158 940 46 828 l 46 251 b 296 0 46 113 158 0 l 501 0 b 751 251 640 0 751 113 l 751 690 b 501 940 751 828 640 940 z m 540 290 b 463 211 540 247 506 211 l 336 211 b 257 290 292 211 257 247 l 257 650 b 336 729 257 694 292 729 l 463 729 b 540 650 506 729 540 694 z m 596 1094 l 524 1167 b 474 1132 514 1154 494 1135 l 467 1132 b 425 1154 454 1132 440 1139 b 322 1203 388 1192 350 1203 b 306 1201 315 1203 311 1203 b 200 1138 264 1197 222 1168 l 264 1064 b 315 1097 274 1076 294 1096 l 322 1097 b 365 1075 336 1097 350 1089 b 458 1026 399 1040 432 1029 b 485 1028 468 1026 478 1026 b 596 1094 525 1033 565 1053 z "},"Ö":{"ha":797,"x_min":0,"x_max":0,"o":"m 296 940 b 46 690 158 940 46 828 l 46 251 b 296 0 46 113 158 0 l 501 0 b 751 251 640 0 751 113 l 751 690 b 501 940 751 828 640 940 z m 540 290 b 463 211 540 247 506 211 l 336 211 b 257 290 292 211 257 247 l 257 650 b 336 729 257 694 292 729 l 463 729 b 540 650 506 729 540 694 z m 167 1026 l 351 1026 b 364 1040 358 1026 364 1032 l 364 1224 b 351 1238 364 1232 358 1238 l 167 1238 b 153 1224 160 1238 153 1232 l 153 1040 b 167 1026 153 1032 160 1026 z m 446 1026 l 631 1026 b 643 1040 638 1026 643 1032 l 643 1224 b 631 1238 643 1232 638 1238 l 446 1238 b 432 1224 439 1238 432 1232 l 432 1040 b 446 1026 432 1032 439 1026 z "},"×":{"ha":551,"x_min":0,"x_max":0,"o":"m 506 600 l 406 700 l 276 571 l 146 700 l 46 600 l 175 471 l 46 340 l 146 240 l 276 369 l 406 240 l 506 340 l 376 471 z "},"Ø":{"ha":799,"x_min":0,"x_max":0,"o":"m 471 940 l 471 1097 l 329 1097 l 329 940 l 297 940 b 46 690 158 940 46 828 l 46 251 b 297 0 46 113 158 0 l 329 0 l 329 -157 l 471 -157 l 471 0 l 503 0 b 753 251 640 0 753 113 l 753 690 b 503 940 753 828 640 940 z m 542 290 b 471 211 542 250 511 215 l 329 211 b 257 290 289 215 257 250 l 257 650 b 329 729 257 692 289 725 l 471 729 b 542 650 511 725 542 692 z "},"Ù":{"ha":799,"x_min":0,"x_max":0,"o":"m 542 940 l 542 290 b 463 211 542 247 507 211 l 336 211 b 257 290 293 211 257 247 l 257 940 l 46 940 l 46 238 b 283 0 46 107 153 0 l 515 0 b 753 238 646 0 753 107 l 753 940 z m 225 1168 l 446 1026 l 489 1081 l 293 1250 z "},"Ú":{"ha":799,"x_min":0,"x_max":0,"o":"m 542 940 l 542 290 b 463 211 542 247 507 211 l 336 211 b 257 290 293 211 257 247 l 257 940 l 46 940 l 46 238 b 283 0 46 107 153 0 l 515 0 b 753 238 646 0 753 107 l 753 940 z m 576 1168 l 507 1250 l 313 1081 l 356 1026 z "},"Û":{"ha":799,"x_min":0,"x_max":0,"o":"m 542 940 l 542 290 b 463 211 542 247 507 211 l 336 211 b 257 290 293 211 257 247 l 257 940 l 46 940 l 46 238 b 283 0 46 107 153 0 l 515 0 b 753 238 646 0 753 107 l 753 940 z m 400 1242 l 215 1089 l 275 1026 l 400 1113 l 525 1026 l 585 1089 z "},"Ü":{"ha":799,"x_min":0,"x_max":0,"o":"m 542 940 l 542 290 b 463 211 542 247 507 211 l 336 211 b 257 290 293 211 257 247 l 257 940 l 46 940 l 46 238 b 283 0 46 107 153 0 l 515 0 b 753 238 646 0 753 107 l 753 940 z m 168 1026 l 353 1026 b 365 1040 360 1026 365 1032 l 365 1224 b 353 1238 365 1232 360 1238 l 168 1238 b 154 1224 161 1238 154 1232 l 154 1040 b 168 1026 154 1032 161 1026 z m 447 1026 l 632 1026 b 644 1040 639 1026 644 1032 l 644 1224 b 632 1238 644 1232 639 1238 l 447 1238 b 433 1224 440 1238 433 1232 l 433 1040 b 447 1026 433 1032 440 1026 z "},"Ý":{"ha":799,"x_min":0,"x_max":0,"o":"m 753 940 l 542 942 l 542 601 l 386 601 b 294 639 350 601 318 617 b 257 731 271 663 257 694 l 257 942 l 46 942 l 46 731 b 386 390 46 543 199 390 l 542 390 l 542 290 b 463 211 542 247 506 211 l 46 211 l 46 0 l 501 0 b 753 251 640 0 753 113 z m 575 1168 l 506 1250 l 311 1081 l 354 1026 z "},"Þ":{"ha":799,"x_min":0,"x_max":0,"o":"m 257 940 l 257 1111 l 46 1111 l 46 729 l 542 729 b 504 639 542 694 529 664 b 413 601 478 614 447 601 l 46 601 l 46 0 l 257 0 l 257 390 l 413 390 b 653 490 506 390 586 424 b 753 729 719 556 753 636 l 753 940 z "},"ß":{"ha":797,"x_min":0,"x_max":0,"o":"m 751 940 l 296 940 b 46 690 157 940 46 828 l 46 0 l 256 0 l 256 650 b 335 729 256 694 292 729 l 540 729 b 503 639 540 694 526 661 b 413 601 479 615 447 601 l 349 601 l 349 390 l 411 390 b 540 261 483 390 540 332 l 540 211 l 349 211 l 349 0 l 751 0 l 751 260 b 657 494 751 351 715 433 b 751 729 715 556 751 639 z "},"à":{"ha":797,"x_min":0,"x_max":0,"o":"m 46 0 l 256 0 l 256 390 l 540 390 l 540 0 l 751 0 l 751 940 l 296 940 b 46 690 157 940 46 829 z m 256 651 b 335 731 256 694 292 731 l 540 731 l 540 601 l 256 601 z m 224 1164 l 444 1022 l 488 1076 l 292 1246 z "},"á":{"ha":797,"x_min":0,"x_max":0,"o":"m 46 0 l 256 0 l 256 390 l 540 390 l 540 0 l 751 0 l 751 940 l 296 940 b 46 690 157 940 46 829 z m 256 651 b 335 731 256 694 292 731 l 540 731 l 540 601 l 256 601 z m 575 1164 l 506 1246 l 311 1076 l 354 1022 z "},"â":{"ha":797,"x_min":0,"x_max":0,"o":"m 46 0 l 256 0 l 256 390 l 540 390 l 540 0 l 751 0 l 751 940 l 296 940 b 46 690 157 940 46 829 z m 256 651 b 335 731 256 694 292 731 l 540 731 l 540 601 l 256 601 z m 399 1238 l 214 1085 l 274 1022 l 399 1108 l 524 1022 l 583 1085 z "},"ã":{"ha":797,"x_min":0,"x_max":0,"o":"m 46 0 l 256 0 l 256 390 l 540 390 l 540 0 l 751 0 l 751 940 l 296 940 b 46 690 157 940 46 829 z m 256 651 b 335 731 256 694 292 731 l 540 731 l 540 601 l 256 601 z m 596 1090 l 524 1163 b 474 1128 514 1150 494 1131 l 467 1128 b 425 1150 454 1128 440 1135 b 322 1199 388 1188 350 1199 b 306 1197 315 1199 311 1199 b 200 1133 264 1193 222 1164 l 264 1060 b 315 1093 274 1072 294 1092 l 322 1093 b 365 1071 336 1093 350 1085 b 458 1022 399 1036 432 1025 b 485 1024 468 1022 478 1022 b 596 1090 525 1029 565 1049 z "},"ä":{"ha":797,"x_min":0,"x_max":0,"o":"m 46 0 l 256 0 l 256 390 l 540 390 l 540 0 l 751 0 l 751 940 l 296 940 b 46 690 157 940 46 829 z m 256 651 b 335 731 256 694 292 731 l 540 731 l 540 601 l 256 601 z m 167 1022 l 351 1022 b 364 1036 358 1022 364 1028 l 364 1219 b 351 1233 364 1228 358 1233 l 167 1233 b 153 1219 160 1233 153 1228 l 153 1036 b 167 1022 153 1028 160 1022 z m 446 1022 l 631 1022 b 643 1036 638 1022 643 1028 l 643 1219 b 631 1233 643 1228 638 1233 l 446 1233 b 432 1219 439 1233 432 1228 l 432 1036 b 446 1022 432 1028 439 1022 z "},"å":{"ha":797,"x_min":0,"x_max":0,"o":"m 46 0 l 256 0 l 256 390 l 540 390 l 540 0 l 751 0 l 751 940 l 296 940 b 46 690 157 940 46 829 z m 256 651 b 335 731 256 694 292 731 l 540 731 l 540 601 l 256 601 z m 399 1022 b 540 1163 476 1022 540 1085 b 399 1304 540 1240 476 1304 b 258 1163 321 1304 258 1240 b 399 1022 258 1085 321 1022 z m 399 1225 b 461 1163 433 1225 461 1197 b 399 1101 461 1129 433 1101 b 338 1163 365 1101 338 1129 b 399 1225 338 1197 365 1225 z "},"æ":{"ha":1228,"x_min":0,"x_max":0,"o":"m 540 390 l 540 0 l 1182 0 l 1182 211 l 751 211 l 751 390 l 1050 390 l 1050 601 l 751 601 l 751 729 l 1182 729 l 1182 940 l 296 940 b 119 868 226 940 168 917 b 46 690 71 819 46 760 l 46 0 l 256 0 l 256 390 z m 540 731 l 540 601 l 256 601 l 256 651 b 279 707 256 672 264 692 b 335 731 294 722 314 731 z "},"ç":{"ha":799,"x_min":0,"x_max":0,"o":"m 388 0 l 388 -122 l 390 -122 b 394 -121 392 -122 393 -122 l 413 -121 b 467 -128 428 -121 446 -124 b 496 -161 486 -132 496 -143 b 478 -187 496 -171 490 -179 b 431 -200 465 -196 449 -200 b 389 -190 414 -200 400 -197 b 367 -168 376 -183 369 -176 l 301 -215 b 431 -279 331 -258 374 -279 b 533 -244 471 -279 506 -268 b 575 -161 561 -222 575 -194 b 547 -83 575 -126 565 -100 b 474 -49 529 -67 504 -56 l 474 0 l 753 0 l 753 390 l 542 390 l 542 211 l 336 211 b 281 235 314 211 296 219 b 257 290 265 250 257 269 l 257 651 b 281 707 257 672 265 692 b 336 731 296 722 314 731 l 542 731 l 542 601 l 753 601 l 753 940 l 297 940 b 119 868 228 940 168 917 b 46 690 71 819 46 760 l 46 251 b 119 74 46 182 71 122 b 297 0 168 25 228 0 z "},"è":{"ha":733,"x_min":0,"x_max":0,"o":"m 688 940 l 46 940 l 46 0 l 688 0 l 688 211 l 257 211 l 257 390 l 556 390 l 556 601 l 257 601 l 257 729 l 688 729 z m 192 1164 l 413 1022 l 456 1076 l 260 1246 z "},"é":{"ha":733,"x_min":0,"x_max":0,"o":"m 688 940 l 46 940 l 46 0 l 688 0 l 688 211 l 257 211 l 257 390 l 556 390 l 556 601 l 257 601 l 257 729 l 688 729 z m 543 1164 l 474 1246 l 279 1076 l 322 1022 z "},"ê":{"ha":733,"x_min":0,"x_max":0,"o":"m 688 940 l 46 940 l 46 0 l 688 0 l 688 211 l 257 211 l 257 390 l 556 390 l 556 601 l 257 601 l 257 729 l 688 729 z m 367 1238 l 182 1085 l 242 1022 l 367 1108 l 492 1022 l 551 1085 z "},"ë":{"ha":733,"x_min":0,"x_max":0,"o":"m 688 940 l 46 940 l 46 0 l 688 0 l 688 211 l 257 211 l 257 390 l 556 390 l 556 601 l 257 601 l 257 729 l 688 729 z m 135 1022 l 319 1022 b 332 1036 326 1022 332 1028 l 332 1219 b 319 1233 332 1228 326 1233 l 135 1233 b 121 1219 128 1233 121 1228 l 121 1036 b 135 1022 121 1028 128 1022 z m 414 1022 l 599 1022 b 611 1036 606 1022 611 1028 l 611 1219 b 599 1233 611 1228 606 1233 l 414 1233 b 400 1219 407 1233 400 1228 l 400 1036 b 414 1022 400 1028 407 1022 z "},"ì":{"ha":600,"x_min":0,"x_max":0,"o":"m 554 731 l 554 942 l 46 942 l 46 731 l 194 731 l 194 211 l 46 211 l 46 0 l 554 0 l 554 211 l 406 211 l 406 731 z m 125 1165 l 346 1024 l 389 1078 l 193 1247 z "},"í":{"ha":600,"x_min":0,"x_max":0,"o":"m 554 731 l 554 942 l 46 942 l 46 731 l 194 731 l 194 211 l 46 211 l 46 0 l 554 0 l 554 211 l 406 211 l 406 731 z m 476 1165 l 407 1247 l 213 1078 l 256 1024 z "},"î":{"ha":600,"x_min":0,"x_max":0,"o":"m 554 731 l 554 942 l 46 942 l 46 731 l 194 731 l 194 211 l 46 211 l 46 0 l 554 0 l 554 211 l 406 211 l 406 731 z m 300 1239 l 115 1086 l 175 1024 l 300 1110 l 425 1024 l 485 1086 z "},"ï":{"ha":600,"x_min":0,"x_max":0,"o":"m 554 731 l 554 942 l 46 942 l 46 731 l 194 731 l 194 211 l 46 211 l 46 0 l 554 0 l 554 211 l 406 211 l 406 731 z m 68 1024 l 253 1024 b 265 1038 260 1024 265 1029 l 265 1221 b 253 1235 265 1229 260 1235 l 68 1235 b 54 1221 61 1235 54 1229 l 54 1038 b 68 1024 54 1029 61 1024 z m 347 1024 l 532 1024 b 544 1038 539 1024 544 1029 l 544 1221 b 532 1235 544 1229 539 1235 l 347 1235 b 333 1221 340 1235 333 1229 l 333 1038 b 347 1024 333 1029 340 1024 z "},"ð":{"ha":797,"x_min":0,"x_max":0,"o":"m 257 399 l 403 399 l 403 542 l 257 542 l 257 731 l 463 731 b 518 707 483 731 503 722 b 540 651 533 692 540 672 l 540 290 b 518 235 540 269 533 250 b 463 211 503 219 483 211 l 257 211 z m 46 542 l -117 542 l -117 399 l 46 399 l 46 0 l 501 0 b 679 74 571 0 631 25 b 751 251 728 122 751 182 l 751 690 b 679 868 751 760 728 819 b 501 940 631 917 571 940 l 46 940 z "},"ñ":{"ha":799,"x_min":0,"x_max":0,"o":"m 753 940 l 542 940 l 542 422 l 282 940 l 46 940 l 46 0 l 257 0 l 257 519 l 517 0 l 753 0 z m 597 1090 l 525 1163 b 475 1128 515 1150 496 1131 l 468 1128 b 426 1150 456 1128 442 1135 b 324 1199 389 1188 351 1199 b 307 1197 317 1199 313 1199 b 201 1133 265 1193 224 1164 l 265 1060 b 317 1093 275 1072 296 1092 l 324 1093 b 367 1071 338 1093 351 1085 b 460 1022 400 1036 433 1025 b 486 1024 469 1022 479 1022 b 597 1090 526 1029 567 1049 z "},"ò":{"ha":797,"x_min":0,"x_max":0,"o":"m 296 940 b 46 690 158 940 46 828 l 46 251 b 296 0 46 113 158 0 l 501 0 b 751 251 640 0 751 113 l 751 690 b 501 940 751 828 640 940 z m 540 290 b 463 211 540 247 506 211 l 336 211 b 257 290 292 211 257 247 l 257 650 b 336 729 257 694 292 729 l 463 729 b 540 650 506 729 540 694 z m 224 1164 l 444 1022 l 488 1076 l 292 1246 z "},"ó":{"ha":797,"x_min":0,"x_max":0,"o":"m 296 940 b 46 690 158 940 46 828 l 46 251 b 296 0 46 113 158 0 l 501 0 b 751 251 640 0 751 113 l 751 690 b 501 940 751 828 640 940 z m 540 290 b 463 211 540 247 506 211 l 336 211 b 257 290 292 211 257 247 l 257 650 b 336 729 257 694 292 729 l 463 729 b 540 650 506 729 540 694 z m 575 1164 l 506 1246 l 311 1076 l 354 1022 z "},"ô":{"ha":797,"x_min":0,"x_max":0,"o":"m 296 940 b 46 690 158 940 46 828 l 46 251 b 296 0 46 113 158 0 l 501 0 b 751 251 640 0 751 113 l 751 690 b 501 940 751 828 640 940 z m 540 290 b 463 211 540 247 506 211 l 336 211 b 257 290 292 211 257 247 l 257 650 b 336 729 257 694 292 729 l 463 729 b 540 650 506 729 540 694 z m 399 1238 l 214 1085 l 274 1022 l 399 1108 l 524 1022 l 583 1085 z "},"õ":{"ha":797,"x_min":0,"x_max":0,"o":"m 296 940 b 46 690 158 940 46 828 l 46 251 b 296 0 46 113 158 0 l 501 0 b 751 251 640 0 751 113 l 751 690 b 501 940 751 828 640 940 z m 540 290 b 463 211 540 247 506 211 l 336 211 b 257 290 292 211 257 247 l 257 650 b 336 729 257 694 292 729 l 463 729 b 540 650 506 729 540 694 z m 596 1090 l 524 1163 b 474 1128 514 1150 494 1131 l 467 1128 b 425 1150 454 1128 440 1135 b 322 1199 388 1188 350 1199 b 306 1197 315 1199 311 1199 b 200 1133 264 1193 222 1164 l 264 1060 b 315 1093 274 1072 294 1092 l 322 1093 b 365 1071 336 1093 350 1085 b 458 1022 399 1036 432 1025 b 485 1024 468 1022 478 1022 b 596 1090 525 1029 565 1049 z "},"ö":{"ha":797,"x_min":0,"x_max":0,"o":"m 296 940 b 46 690 158 940 46 828 l 46 251 b 296 0 46 113 158 0 l 501 0 b 751 251 640 0 751 113 l 751 690 b 501 940 751 828 640 940 z m 540 290 b 463 211 540 247 506 211 l 336 211 b 257 290 292 211 257 247 l 257 650 b 336 729 257 694 292 729 l 463 729 b 540 650 506 729 540 694 z m 167 1022 l 351 1022 b 364 1036 358 1022 364 1028 l 364 1219 b 351 1233 364 1228 358 1233 l 167 1233 b 153 1219 160 1233 153 1228 l 153 1036 b 167 1022 153 1028 160 1022 z m 446 1022 l 631 1022 b 643 1036 638 1022 643 1028 l 643 1219 b 631 1233 643 1228 638 1233 l 446 1233 b 432 1219 439 1233 432 1228 l 432 1036 b 446 1022 432 1028 439 1022 z "},"÷":{"ha":600,"x_min":0,"x_max":0,"o":"m 554 399 l 554 542 l 46 542 l 46 399 z m 208 129 l 392 129 b 406 143 399 129 406 135 l 406 326 b 392 340 406 333 399 340 l 208 340 b 194 326 200 340 194 333 l 194 143 b 208 129 194 135 200 129 z m 208 600 l 392 600 b 406 614 399 600 406 607 l 406 799 b 392 811 406 806 399 811 l 208 811 b 194 799 200 811 194 806 l 194 614 b 208 600 194 607 200 600 z "},"ø":{"ha":799,"x_min":0,"x_max":0,"o":"m 471 940 l 471 1097 l 329 1097 l 329 940 l 297 940 b 46 690 158 940 46 828 l 46 251 b 297 0 46 113 158 0 l 329 0 l 329 -157 l 471 -157 l 471 0 l 503 0 b 753 251 640 0 753 113 l 753 690 b 503 940 753 828 640 940 z m 542 290 b 471 211 542 250 511 215 l 329 211 b 257 290 289 215 257 250 l 257 650 b 329 729 257 692 289 725 l 471 729 b 542 650 511 725 542 692 z "},"ù":{"ha":799,"x_min":0,"x_max":0,"o":"m 542 940 l 542 290 b 463 211 542 247 507 211 l 336 211 b 257 290 293 211 257 247 l 257 940 l 46 940 l 46 238 b 283 0 46 107 153 0 l 515 0 b 753 238 646 0 753 107 l 753 940 z m 225 1164 l 446 1022 l 489 1076 l 293 1246 z "},"ú":{"ha":799,"x_min":0,"x_max":0,"o":"m 542 940 l 542 290 b 463 211 542 247 507 211 l 336 211 b 257 290 293 211 257 247 l 257 940 l 46 940 l 46 238 b 283 0 46 107 153 0 l 515 0 b 753 238 646 0 753 107 l 753 940 z m 576 1164 l 507 1246 l 313 1076 l 356 1022 z "},"û":{"ha":799,"x_min":0,"x_max":0,"o":"m 542 940 l 542 290 b 463 211 542 247 507 211 l 336 211 b 257 290 293 211 257 247 l 257 940 l 46 940 l 46 238 b 283 0 46 107 153 0 l 515 0 b 753 238 646 0 753 107 l 753 940 z m 400 1238 l 215 1085 l 275 1022 l 400 1108 l 525 1022 l 585 1085 z "},"ü":{"ha":799,"x_min":0,"x_max":0,"o":"m 542 940 l 542 290 b 463 211 542 247 507 211 l 336 211 b 257 290 293 211 257 247 l 257 940 l 46 940 l 46 238 b 283 0 46 107 153 0 l 515 0 b 753 238 646 0 753 107 l 753 940 z m 168 1022 l 353 1022 b 365 1036 360 1022 365 1028 l 365 1219 b 353 1233 365 1228 360 1233 l 168 1233 b 154 1219 161 1233 154 1228 l 154 1036 b 168 1022 154 1028 161 1022 z m 447 1022 l 632 1022 b 644 1036 639 1022 644 1028 l 644 1219 b 632 1233 644 1228 639 1233 l 447 1233 b 433 1219 440 1233 433 1228 l 433 1036 b 447 1022 433 1028 440 1022 z "},"ý":{"ha":799,"x_min":0,"x_max":0,"o":"m 753 940 l 542 942 l 542 601 l 386 601 b 294 639 350 601 318 617 b 257 731 271 663 257 694 l 257 942 l 46 942 l 46 731 b 386 390 46 543 199 390 l 542 390 l 542 290 b 463 211 542 247 506 211 l 46 211 l 46 0 l 501 0 b 753 251 640 0 753 113 z m 575 1165 l 506 1247 l 311 1078 l 354 1024 z "},"þ":{"ha":799,"x_min":0,"x_max":0,"o":"m 504 639 b 413 601 479 614 449 601 l 257 601 l 257 731 l 542 731 b 504 639 542 694 529 664 z m 257 940 l 257 1111 l 46 1111 l 46 0 l 257 0 l 257 390 l 413 390 b 654 490 507 390 588 424 b 753 731 719 556 753 636 l 753 940 z "},"ÿ":{"ha":799,"x_min":0,"x_max":0,"o":"m 753 940 l 542 942 l 542 601 l 386 601 b 294 639 350 601 318 617 b 257 731 271 663 257 694 l 257 942 l 46 942 l 46 731 b 386 390 46 543 199 390 l 542 390 l 542 290 b 463 211 542 247 506 211 l 46 211 l 46 0 l 501 0 b 753 251 640 0 753 113 z m 167 1024 l 351 1024 b 364 1038 358 1024 364 1029 l 364 1221 b 351 1235 364 1229 358 1235 l 167 1235 b 153 1221 160 1235 153 1229 l 153 1038 b 167 1024 153 1029 160 1024 z m 446 1024 l 631 1024 b 643 1038 638 1024 643 1029 l 643 1221 b 631 1235 643 1229 638 1235 l 446 1235 b 432 1221 439 1235 432 1229 l 432 1038 b 446 1024 432 1029 439 1024 z "},"ı":{"ha":600,"x_min":0,"x_max":0,"o":"m 554 731 l 554 942 l 46 942 l 46 731 l 194 731 l 194 211 l 46 211 l 46 0 l 554 0 l 554 211 l 406 211 l 406 731 z "},"̀":{"ha":356,"x_min":0,"x_max":0,"o":"m 46 1168 l 267 1026 l 310 1081 l 114 1250 z "},"́":{"ha":356,"x_min":0,"x_max":0,"o":"m 310 1168 l 240 1250 l 46 1081 l 89 1026 z "},"̂":{"ha":461,"x_min":0,"x_max":0,"o":"m 231 1242 l 46 1089 l 106 1026 l 231 1113 l 356 1026 l 415 1089 z "},"̃":{"ha":488,"x_min":0,"x_max":0,"o":"m 442 1094 l 369 1167 b 319 1132 360 1154 340 1135 l 313 1132 b 271 1154 300 1132 286 1139 b 168 1203 233 1192 196 1203 b 151 1201 161 1203 157 1203 b 46 1138 110 1197 68 1168 l 110 1064 b 161 1097 119 1076 140 1096 l 168 1097 b 211 1075 182 1097 196 1089 b 304 1026 244 1040 278 1029 b 331 1028 314 1026 324 1026 b 442 1094 371 1033 411 1053 z "},"̄":{"ha":446,"x_min":0,"x_max":0,"o":"m 400 1114 l 46 1114 l 46 1026 l 400 1026 z "},"̇":{"ha":303,"x_min":0,"x_max":0,"o":"m 60 1026 l 244 1026 b 257 1040 251 1026 257 1032 l 257 1224 b 244 1238 257 1232 251 1238 l 60 1238 b 46 1224 53 1238 46 1232 l 46 1040 b 60 1026 46 1032 53 1026 z "},"̈":{"ha":582,"x_min":0,"x_max":0,"o":"m 60 1026 l 244 1026 b 257 1040 251 1026 257 1032 l 257 1224 b 244 1238 257 1232 251 1238 l 60 1238 b 46 1224 53 1238 46 1232 l 46 1040 b 60 1026 46 1032 53 1026 z m 339 1026 l 524 1026 b 536 1040 531 1026 536 1032 l 536 1224 b 524 1238 536 1232 531 1238 l 339 1238 b 325 1224 332 1238 325 1232 l 325 1040 b 339 1026 325 1032 332 1026 z "},"̊":{"ha":374,"x_min":0,"x_max":0,"o":"m 186 1026 b 328 1167 264 1026 328 1089 b 186 1308 328 1244 264 1308 b 46 1167 108 1308 46 1244 b 186 1026 46 1089 108 1026 z m 186 1229 b 249 1167 221 1229 249 1201 b 186 1106 249 1133 221 1106 b 125 1167 153 1106 125 1133 b 186 1229 125 1201 153 1229 z "},"̌":{"ha":461,"x_min":0,"x_max":0,"o":"m 231 1026 l 415 1179 l 356 1242 l 231 1156 l 106 1242 l 46 1179 z "},"̧":{"ha":365,"x_min":0,"x_max":0,"o":"m 218 85 l 132 85 l 132 -122 b 157 -121 132 -122 142 -121 b 240 -161 189 -121 240 -126 b 175 -200 240 -181 213 -200 b 111 -168 142 -200 115 -183 l 46 -215 b 175 -279 69 -254 118 -279 b 319 -161 256 -279 319 -228 b 218 -49 319 -92 278 -62 z "},"–":{"ha":600,"x_min":0,"x_max":0,"o":"m 554 399 l 554 542 l 46 542 l 46 399 z "},"—":{"ha":792,"x_min":0,"x_max":0,"o":"m 746 399 l 746 542 l 46 542 l 46 399 z "},"‘":{"ha":303,"x_min":0,"x_max":0,"o":"m 192 643 b 257 708 228 643 257 672 l 257 788 b 192 854 257 825 228 854 l 169 854 b 151 872 160 854 151 863 l 151 925 b 136 940 151 933 144 940 l 125 940 b 46 861 82 940 46 906 l 46 708 b 113 643 46 672 76 643 z "},"’":{"ha":303,"x_min":0,"x_max":0,"o":"m 113 940 b 46 875 76 940 46 911 l 46 796 b 113 729 46 758 76 729 l 135 729 b 151 711 144 729 151 721 l 151 658 b 168 643 151 650 158 643 l 178 643 b 257 722 222 643 257 678 l 257 875 b 192 940 257 911 228 940 z "},"‚":{"ha":303,"x_min":0,"x_max":0,"o":"m 113 211 b 46 144 76 211 46 182 l 46 65 b 113 0 46 29 76 0 l 135 0 b 151 -18 144 0 151 -8 l 151 -71 b 168 -86 151 -79 158 -86 l 178 -86 b 257 -7 222 -86 257 -51 l 257 144 b 192 211 257 182 228 211 z "},"“":{"ha":549,"x_min":0,"x_max":0,"o":"m 192 643 b 257 708 228 643 257 672 l 257 788 b 192 854 257 825 228 854 l 169 854 b 151 872 160 854 151 863 l 151 925 b 136 940 151 933 144 940 l 125 940 b 46 861 82 940 46 906 l 46 708 b 113 643 46 672 76 643 z m 438 643 b 503 708 474 643 503 672 l 503 788 b 438 854 503 825 474 854 l 415 854 b 397 872 406 854 397 863 l 397 925 b 382 940 397 933 390 940 l 371 940 b 292 861 328 940 292 906 l 292 708 b 358 643 292 672 322 643 z "},"”":{"ha":549,"x_min":0,"x_max":0,"o":"m 358 940 b 292 875 322 940 292 911 l 292 796 b 358 729 292 758 322 729 l 381 729 b 397 711 390 729 397 721 l 397 658 b 414 643 397 650 404 643 l 424 643 b 503 722 468 643 503 678 l 503 875 b 438 940 503 911 474 940 z m 113 940 b 46 875 76 940 46 911 l 46 796 b 113 729 46 758 76 729 l 135 729 b 151 711 144 729 151 721 l 151 658 b 168 643 151 650 158 643 l 178 643 b 257 722 222 643 257 678 l 257 875 b 192 940 257 911 228 940 z "},"„":{"ha":549,"x_min":0,"x_max":0,"o":"m 113 211 b 46 144 76 211 46 182 l 46 65 b 113 0 46 29 76 0 l 135 0 b 151 -18 144 0 151 -8 l 151 -71 b 168 -86 151 -79 158 -86 l 178 -86 b 257 -7 222 -86 257 -51 l 257 144 b 192 211 257 182 228 211 z m 358 211 b 292 144 322 211 292 182 l 292 65 b 358 0 292 29 322 0 l 381 0 b 397 -18 390 0 397 -8 l 397 -71 b 414 -86 397 -79 404 -86 l 424 -86 b 503 -7 468 -86 503 -51 l 503 144 b 438 211 503 182 474 211 z "},"†":{"ha":707,"x_min":0,"x_max":0,"o":"m 661 706 l 425 706 l 425 940 l 282 940 l 282 706 l 46 706 l 46 564 l 282 564 l 282 0 l 425 0 l 425 564 l 661 564 z "},"‡":{"ha":707,"x_min":0,"x_max":0,"o":"m 661 239 l 661 382 l 425 379 l 425 564 l 661 564 l 661 706 l 425 706 l 425 940 l 283 940 l 283 706 l 46 706 l 46 564 l 283 564 l 283 379 l 46 376 l 47 235 l 283 236 l 283 0 l 425 0 l 425 238 z "},"•":{"ha":428,"x_min":0,"x_max":0,"o":"m 214 286 b 332 335 260 286 300 301 b 382 454 365 368 382 408 b 333 572 382 500 365 539 b 215 621 300 604 261 621 b 96 572 168 621 129 604 b 46 454 63 540 46 500 b 96 335 46 407 63 368 b 214 286 128 301 167 286 z "},"…":{"ha":1389,"x_min":0,"x_max":0,"o":"m 58 0 l 243 0 b 257 14 250 0 257 6 l 257 197 b 243 211 257 206 250 211 l 58 211 b 46 197 51 211 46 206 l 46 14 b 58 0 46 6 51 0 z m 521 0 l 706 0 b 719 14 713 0 719 6 l 719 197 b 706 211 719 206 713 211 l 521 211 b 508 197 514 211 508 206 l 508 14 b 521 0 508 6 514 0 z m 983 0 l 1168 0 b 1182 14 1175 0 1182 6 l 1182 197 b 1168 211 1182 206 1175 211 l 983 211 b 971 197 976 211 971 206 l 971 14 b 983 0 971 6 976 0 z "},"‹":{"ha":496,"x_min":0,"x_max":0,"o":"m 450 767 l 46 471 l 450 174 l 450 350 l 286 471 l 450 590 z "},"›":{"ha":496,"x_min":0,"x_max":0,"o":"m 46 174 l 450 471 l 46 767 l 46 590 l 210 471 l 46 350 z "},"⁄":{"ha":585,"x_min":0,"x_max":0,"o":"m 539 940 l 388 940 l 46 0 l 197 0 z "},"∕":{"ha":585,"x_min":0,"x_max":0,"o":"m 539 940 l 388 940 l 46 0 l 197 0 z "},"₣":{"ha":833,"x_min":0,"x_max":0,"o":"m 657 390 l 656 601 l 357 600 l 357 729 l 788 731 l 786 942 l 144 939 l 147 289 l 46 289 l 47 146 l 149 147 l 149 -1 l 360 0 l 360 147 l 556 149 l 556 290 l 358 290 l 358 389 z "},"₤":{"ha":808,"x_min":0,"x_max":0,"o":"m 376 211 l 376 290 l 556 292 l 554 433 l 376 433 l 376 508 l 556 510 l 554 651 l 376 650 b 456 729 376 694 411 729 l 660 729 l 660 940 l 415 940 b 165 690 278 940 165 828 l 165 650 l 46 649 l 47 507 l 165 507 l 165 432 l 46 431 l 47 289 l 165 290 l 165 0 l 763 0 l 763 211 z "},"₧":{"ha":1736,"x_min":0,"x_max":0,"o":"m 681 731 l 736 731 l 736 0 l 947 0 l 947 731 l 985 731 l 985 729 b 988 601 985 658 986 615 l 989 593 b 1074 450 1001 535 1031 488 b 1235 390 1119 410 1174 390 l 1400 390 b 1457 367 1422 390 1442 382 b 1479 311 1472 351 1479 332 l 1479 290 b 1457 235 1479 268 1472 250 b 1400 211 1442 219 1422 211 l 985 211 l 985 0 l 1440 0 b 1618 74 1510 0 1569 25 b 1690 251 1667 122 1690 182 l 1690 350 b 1618 528 1690 419 1667 479 b 1440 601 1569 576 1510 601 l 1275 601 b 1219 625 1253 601 1235 610 b 1201 665 1207 636 1201 650 b 1218 706 1201 681 1207 693 b 1274 729 1233 721 1253 729 l 1690 729 l 1690 940 l 46 940 l 46 729 l 492 729 b 457 639 492 694 481 664 b 375 601 435 614 407 601 l 46 601 l 46 0 l 235 0 l 235 390 l 375 390 b 592 490 460 390 532 424 b 681 729 651 556 681 636 z "},"€":{"ha":917,"x_min":0,"x_max":0,"o":"m 871 601 l 871 940 l 414 940 b 164 690 276 940 164 828 l 164 650 l 46 649 l 47 507 l 164 507 l 164 432 l 46 431 l 47 289 l 164 290 l 164 251 b 414 0 164 113 276 0 l 871 0 l 871 390 l 660 390 l 660 211 l 454 211 b 375 290 410 211 375 247 l 517 292 l 517 433 l 375 433 l 375 508 l 517 510 l 517 651 l 375 650 b 454 729 375 694 411 729 l 660 729 l 660 601 z "},"№":{"ha":1371,"x_min":0,"x_max":0,"o":"m 753 940 l 542 940 l 542 422 l 282 940 l 46 940 l 46 0 l 257 0 l 257 519 l 517 0 l 753 0 z m 1303 47 l 1303 190 l 867 190 l 867 47 z m 1181 451 b 1165 414 1181 436 1176 424 b 1128 399 1156 403 1143 399 l 1042 399 b 1004 414 1026 399 1014 403 b 988 451 993 424 988 436 l 988 697 b 1004 735 988 713 993 725 b 1042 751 1014 746 1026 751 l 1128 751 b 1165 735 1143 751 1156 746 b 1181 697 1176 725 1181 713 z m 1015 894 b 894 844 968 894 928 878 b 844 724 861 811 844 771 l 844 425 b 894 304 844 378 861 338 b 1015 254 928 271 968 254 l 1154 254 b 1275 304 1201 254 1242 271 b 1325 425 1308 338 1325 378 l 1325 724 b 1275 844 1325 771 1308 811 b 1154 894 1242 878 1201 894 z "},"™":{"ha":444,"x_min":0,"x_max":0,"o":"m 346 940 l 303 854 l 260 940 l 208 940 l 208 731 l 254 731 l 254 846 l 303 750 l 351 846 l 351 731 l 399 731 l 399 940 z m 46 893 l 94 893 l 94 731 l 142 731 l 142 893 l 189 893 l 189 940 l 46 940 z "},"−":{"ha":600,"x_min":0,"x_max":0,"o":"m 554 399 l 554 542 l 46 542 l 46 399 z "},"≈":{"ha":488,"x_min":0,"x_max":0,"o":"m 442 354 l 369 426 b 319 392 360 414 340 394 l 313 392 b 271 414 300 392 286 399 b 168 463 233 451 196 463 b 151 461 161 463 157 463 b 46 397 110 457 68 428 l 110 324 b 161 357 119 336 140 356 l 168 357 b 211 335 182 357 196 349 b 304 286 244 300 278 289 b 331 288 314 286 324 286 b 442 354 371 293 411 313 z m 442 551 l 369 624 b 319 589 360 611 340 592 l 313 589 b 271 611 300 589 286 596 b 168 660 233 649 196 660 b 151 658 161 660 157 660 b 46 594 110 654 68 625 l 110 521 b 161 554 119 533 140 553 l 168 554 b 211 532 182 554 196 546 b 304 483 244 497 278 486 b 331 485 314 483 324 483 b 442 551 371 490 411 510 z "},"≤":{"ha":496,"x_min":0,"x_max":0,"o":"m 450 867 l 46 571 l 450 274 l 450 450 l 286 571 l 450 690 z m 46 75 l 450 75 l 450 217 l 46 217 z "},"≥":{"ha":496,"x_min":0,"x_max":0,"o":"m 46 867 l 46 690 l 210 571 l 46 450 l 46 274 l 450 571 z m 450 75 l 450 217 l 46 217 l 46 75 z "},"ﬁ":{"ha":1333,"x_min":0,"x_max":0,"o":"m 688 731 l 688 940 l 46 940 l 46 0 l 257 0 l 257 390 l 556 390 l 556 601 l 257 601 l 257 731 z m 1288 731 l 1288 942 l 779 942 l 779 731 l 928 731 l 928 211 l 779 211 l 779 0 l 1288 0 l 1288 211 l 1139 211 l 1139 731 z "},"ﬂ":{"ha":1358,"x_min":0,"x_max":0,"o":"m 688 731 l 688 940 l 46 940 l 46 0 l 257 0 l 257 390 l 556 390 l 556 601 l 257 601 l 257 731 z m 990 211 l 990 940 l 779 940 l 779 0 l 1311 0 l 1311 211 z "},"Œ":{"ha":1228,"x_min":0,"x_max":0,"o":"m 540 290 b 518 235 540 268 533 250 b 463 211 503 219 483 211 l 336 211 b 281 235 314 211 296 219 b 257 290 265 250 257 268 l 257 650 b 281 707 257 672 265 692 b 336 729 296 722 314 729 l 463 729 b 518 707 483 729 503 722 b 540 650 533 692 540 672 z m 1182 940 l 296 940 b 119 867 228 940 168 915 b 46 690 71 818 46 758 l 46 251 b 119 74 46 182 71 122 b 296 0 168 25 228 0 l 1182 0 l 1182 211 l 751 211 l 751 390 l 1050 390 l 1050 601 l 751 601 l 751 690 b 749 729 751 704 750 717 l 1182 729 z "},"œ":{"ha":1228,"x_min":0,"x_max":0,"o":"m 296 0 l 1182 0 l 1182 211 l 751 211 l 751 390 l 1050 390 l 1050 601 l 751 601 l 751 729 l 1182 729 l 1182 940 l 296 940 b 119 867 228 940 168 915 b 46 690 71 818 46 758 l 46 251 b 119 74 46 182 71 122 b 296 0 168 25 228 0 z m 540 650 l 540 290 b 518 235 540 268 533 250 b 463 211 503 219 483 211 l 336 211 b 281 235 314 211 296 219 b 257 290 265 250 257 268 l 257 650 b 281 707 257 672 265 692 b 336 729 296 722 314 729 l 463 729 b 518 707 483 729 503 722 b 540 650 533 692 540 672 z "},"Š":{"ha":797,"x_min":0,"x_max":0,"o":"m 751 729 l 751 940 l 257 940 b 46 729 140 940 46 846 z m 501 0 b 751 251 640 0 751 113 l 751 350 b 501 601 751 489 640 601 l 49 601 b 296 390 67 481 172 390 l 461 390 b 540 311 506 390 540 354 l 540 290 b 461 211 540 247 506 211 l 46 211 l 46 0 z m 399 1026 l 583 1179 l 524 1242 l 399 1156 l 274 1242 l 214 1179 z "},"š":{"ha":797,"x_min":0,"x_max":0,"o":"m 501 0 b 679 74 571 0 631 25 b 751 251 728 122 751 182 l 751 350 b 679 528 751 419 728 479 b 501 601 631 576 571 601 l 336 601 b 281 625 314 601 296 610 b 263 665 268 636 263 650 b 279 706 263 681 268 693 b 335 729 294 721 313 729 l 751 729 l 751 940 l 257 940 b 108 879 199 940 149 919 b 46 729 67 838 46 788 b 49 601 46 658 47 615 l 50 593 b 135 450 63 535 90 488 b 296 390 181 410 235 390 l 461 390 b 518 367 483 390 503 382 b 540 311 533 351 540 332 l 540 290 b 518 235 540 268 533 250 b 461 211 503 219 483 211 l 46 211 l 46 0 z m 399 1022 l 583 1175 l 524 1238 l 399 1151 l 274 1238 l 214 1175 z "},"Ÿ":{"ha":799,"x_min":0,"x_max":0,"o":"m 753 940 l 542 942 l 542 601 l 386 601 b 294 639 350 601 318 617 b 257 731 271 663 257 694 l 257 942 l 46 942 l 46 731 b 386 390 46 543 199 390 l 542 390 l 542 290 b 463 211 542 247 506 211 l 46 211 l 46 0 l 501 0 b 753 251 640 0 753 113 z m 167 1026 l 351 1026 b 364 1040 358 1026 364 1032 l 364 1224 b 351 1238 364 1232 358 1238 l 167 1238 b 153 1224 160 1238 153 1232 l 153 1040 b 167 1026 153 1032 160 1026 z m 446 1026 l 631 1026 b 643 1040 638 1026 643 1032 l 643 1224 b 631 1238 643 1232 638 1238 l 446 1238 b 432 1224 439 1238 432 1232 l 432 1040 b 446 1026 432 1032 439 1026 z "},"ž":{"ha":799,"x_min":0,"x_max":0,"o":"m 753 940 l 46 940 l 46 729 l 478 729 l 46 211 l 46 0 l 753 0 l 753 211 l 321 211 l 753 729 z m 400 1022 l 585 1175 l 525 1238 l 400 1151 l 275 1238 l 215 1175 z "},"‰":{"ha":1222,"x_min":0,"x_max":0,"o":"m 549 940 l 208 0 l 319 0 l 661 940 z m 353 832 b 243 940 353 892 303 940 l 154 940 b 46 832 94 940 46 892 l 46 640 b 154 532 46 581 94 532 l 243 532 b 353 640 303 532 353 581 z m 138 664 l 138 814 b 171 849 138 833 153 849 l 222 849 z m 174 624 l 261 813 l 261 658 b 226 624 261 639 244 624 z m 625 408 b 515 300 564 408 515 360 l 515 108 b 625 0 515 49 564 0 l 714 0 b 822 108 774 0 822 49 l 822 300 b 714 408 822 360 774 408 z m 607 133 l 607 282 b 642 317 607 301 622 317 l 692 317 z m 731 126 b 697 92 731 107 715 92 l 644 92 l 731 281 z m 979 408 b 869 300 918 408 869 360 l 869 108 b 979 0 869 49 918 0 l 1068 0 b 1176 108 1128 0 1176 49 l 1176 300 b 1068 408 1176 360 1128 408 z m 961 133 l 961 282 b 996 317 961 301 976 317 l 1046 317 z m 1085 126 b 1051 92 1085 107 1069 92 l 999 92 l 1085 281 z "},"":{"ha":1408,"x_min":0,"x_max":0,"o":"m 1151 940 l 1151 290 b 1072 211 1151 247 1115 211 l 946 211 b 867 290 903 211 867 247 l 867 940 l 46 940 l 46 729 l 260 729 l 260 0 l 471 0 l 471 729 l 656 729 l 656 238 b 893 0 656 107 763 0 l 1125 0 b 1363 238 1256 0 1363 107 l 1363 940 z "},"":{"ha":1158,"x_min":0,"x_max":0,"o":"m 46 940 l 46 729 l 260 729 l 260 0 l 471 0 l 471 729 l 686 729 l 686 0 l 897 0 l 897 729 l 1113 729 l 1113 940 z "},"":{"ha":1314,"x_min":0,"x_max":0,"o":"m 296 640 b 46 390 157 640 46 528 l 46 251 b 296 0 46 113 157 0 l 501 0 b 751 251 639 0 751 113 l 751 390 b 501 640 751 528 639 640 z m 540 290 b 461 211 540 247 506 211 l 336 211 b 257 290 292 211 257 247 l 257 350 b 336 429 257 394 292 429 l 461 429 b 540 350 506 429 540 394 z m 46 940 l 46 729 l 843 729 l 843 0 l 1054 0 l 1054 729 l 1268 729 l 1268 940 z "},"":{"ha":1315,"x_min":0,"x_max":0,"o":"m 814 640 b 563 390 675 640 563 528 l 563 251 b 814 0 563 113 675 0 l 1018 0 b 1269 251 1157 0 1269 113 l 1269 390 b 1018 640 1269 528 1157 640 z m 1058 290 b 979 211 1058 247 1022 211 l 853 211 b 774 290 810 211 774 247 l 774 350 b 853 429 774 394 810 429 l 979 429 b 1058 350 1022 429 1058 394 z m 46 940 l 46 729 l 261 729 l 261 0 l 472 0 l 472 729 l 1269 729 l 1269 940 z "},"":{"ha":1596,"x_min":0,"x_max":0,"o":"m 1094 940 b 843 690 956 940 843 829 l 843 551 b 1094 300 843 413 956 300 l 1300 300 b 1550 551 1438 300 1550 413 l 1550 690 b 1300 940 1550 828 1438 940 z m 1339 590 b 1260 511 1339 547 1304 511 l 1133 511 b 1054 590 1090 511 1054 547 l 1054 650 b 1133 729 1054 694 1090 729 l 1260 729 b 1339 650 1304 729 1339 694 z m 1550 211 l 731 211 b 672 249 706 211 683 226 l 599 399 l 582 435 b 751 729 683 494 751 604 l 751 940 l 46 940 l 46 729 l 540 729 b 503 639 540 694 526 663 b 413 601 479 615 447 601 l 46 601 l 46 0 l 257 0 l 257 390 l 369 390 l 371 385 l 372 383 l 496 126 b 699 0 533 50 613 0 l 1550 0 z "},"":{"ha":1532,"x_min":0,"x_max":0,"o":"m 1486 940 l 46 940 l 46 729 l 1275 729 b 1238 639 1275 694 1260 663 b 1146 601 1214 615 1182 601 l 779 601 l 779 0 l 990 0 l 990 390 l 1118 126 b 1319 0 1156 50 1233 0 l 1486 0 l 1486 211 l 1353 211 b 1293 249 1328 211 1304 226 l 1221 399 b 1486 729 1372 432 1486 568 z m 257 390 l 556 390 l 556 601 l 46 601 l 46 0 l 688 0 l 688 211 l 257 211 z "},"":{"ha":1596,"x_min":0,"x_max":0,"o":"m 1550 729 l 1550 940 l 1094 940 b 843 690 956 940 843 828 l 843 640 b 1094 390 843 503 956 390 l 1260 390 b 1339 311 1303 390 1339 354 l 1339 290 b 1260 211 1339 247 1303 211 l 731 211 b 672 249 706 211 683 226 l 600 399 l 582 435 b 751 729 683 494 751 604 l 751 940 l 46 940 l 46 729 l 540 729 b 503 639 540 694 526 663 b 413 601 479 615 447 601 l 46 601 l 46 0 l 257 0 l 257 390 l 369 390 l 372 385 l 372 383 l 496 126 b 699 0 535 50 613 0 l 1299 0 b 1550 251 1438 0 1550 113 l 1550 350 b 1299 601 1550 489 1438 601 l 1118 601 b 1054 665 1083 601 1054 629 b 1118 729 1054 701 1083 729 z "},"":{"ha":1317,"x_min":0,"x_max":0,"o":"m 297 940 b 46 690 158 940 46 828 l 46 640 b 297 390 46 503 158 390 l 463 390 b 542 311 506 390 542 354 l 542 290 b 463 211 542 247 506 211 l 46 211 l 46 0 l 501 0 b 753 251 640 0 753 113 l 753 350 b 501 601 753 489 640 601 l 322 601 b 257 665 286 601 257 631 b 322 729 257 701 286 729 l 844 729 l 844 0 l 1056 0 l 1056 729 l 1271 729 l 1271 940 z "},"":{"ha":1596,"x_min":0,"x_max":0,"o":"m 296 940 b 46 690 157 940 46 828 l 46 640 b 296 390 46 503 157 390 l 461 390 b 540 311 506 390 540 354 l 540 290 b 461 211 540 247 506 211 l 46 211 l 46 0 l 501 0 b 751 251 639 0 751 113 l 751 350 b 501 601 751 489 639 601 l 321 601 b 256 665 285 601 256 629 b 321 729 256 701 285 729 l 1550 729 l 1550 940 z m 1094 640 b 843 390 956 640 843 528 l 843 251 b 1094 0 843 113 956 0 l 1299 0 b 1550 251 1438 0 1550 113 l 1550 390 b 1299 640 1550 528 1438 640 z m 1339 290 b 1260 211 1339 247 1303 211 l 1133 211 b 1054 290 1090 211 1054 247 l 1054 350 b 1133 429 1054 394 1090 429 l 1260 429 b 1339 350 1303 429 1339 394 z "},"":{"ha":1532,"x_min":0,"x_max":0,"o":"m 321 601 b 257 665 286 601 257 629 b 321 729 257 701 286 729 l 1486 729 l 1486 940 l 297 940 b 46 690 158 940 46 828 l 46 640 b 297 390 46 503 158 390 l 463 390 b 542 311 506 390 542 354 l 542 290 b 463 211 542 247 506 211 l 46 211 l 46 0 l 503 0 b 753 251 640 0 753 113 l 753 350 b 503 601 753 489 640 601 z m 1056 211 l 1056 390 l 1354 390 l 1354 601 l 844 601 l 844 0 l 1486 0 l 1486 211 z "},"":{"ha":1532,"x_min":0,"x_max":0,"o":"m 297 940 b 46 690 158 940 46 828 l 46 640 b 297 390 46 503 158 390 l 463 390 b 542 311 506 390 542 354 l 542 290 b 463 211 542 247 506 211 l 46 211 l 46 0 l 501 0 b 753 251 640 0 753 113 l 753 350 b 501 601 753 489 640 601 l 321 601 b 257 665 286 601 257 629 b 321 729 257 701 286 729 l 1486 729 l 1486 940 z m 844 0 l 1056 0 l 1056 390 l 1354 390 l 1354 601 l 844 601 z "},"":{"ha":1532,"x_min":0,"x_max":0,"o":"m 257 650 b 336 729 257 694 293 729 l 1486 729 l 1486 940 l 297 940 b 46 690 158 940 46 829 l 46 0 l 257 0 l 257 390 l 542 390 l 542 0 l 753 0 l 753 601 l 257 601 z m 1056 211 l 1056 390 l 1354 390 l 1354 601 l 844 601 l 844 0 l 1486 0 l 1486 211 z "},"":{"ha":1532,"x_min":0,"x_max":0,"o":"m 297 940 b 46 690 158 940 46 829 l 46 0 l 257 0 l 257 390 l 542 390 l 542 0 l 753 0 l 753 601 l 257 601 l 257 650 b 336 729 257 694 293 729 l 1486 729 l 1486 940 z m 844 0 l 1056 0 l 1056 390 l 1354 390 l 1354 601 l 844 601 z "},"":{"ha":1596,"x_min":0,"x_max":0,"o":"m 1550 940 l 296 940 b 46 690 158 940 46 829 l 46 0 l 257 0 l 257 390 l 542 390 l 542 0 l 753 0 l 753 601 l 257 601 l 257 650 b 336 729 257 694 292 729 l 1339 729 b 1301 639 1339 694 1325 663 b 1210 601 1278 615 1246 601 l 843 601 l 843 0 l 1550 0 l 1550 260 b 1456 496 1550 351 1514 435 b 1550 729 1514 556 1550 639 z m 1339 211 l 1054 211 l 1054 390 l 1210 390 b 1339 261 1281 390 1339 332 z "},"":{"ha":1513,"x_min":0,"x_max":0,"o":"m 296 940 b 46 690 158 940 46 829 l 46 0 l 257 0 l 257 390 l 542 390 l 542 0 l 753 0 l 753 601 l 257 601 l 257 650 b 336 729 257 694 293 729 l 1176 729 b 1256 650 1219 729 1256 694 l 1256 290 b 1176 211 1256 247 1219 211 l 1057 211 l 1057 601 l 846 601 l 846 0 l 1215 0 b 1467 251 1354 0 1467 113 l 1467 690 b 1215 940 1467 829 1354 940 z "},"":{"ha":1599,"x_min":0,"x_max":0,"o":"m 297 940 b 46 690 158 940 46 829 l 46 0 l 257 0 l 257 390 l 542 390 l 542 0 l 753 0 l 753 601 l 257 601 l 257 650 b 336 729 257 694 293 729 l 1342 729 b 1304 639 1342 694 1326 663 b 1213 601 1281 615 1249 601 l 846 601 l 846 0 l 1057 0 l 1057 390 l 1213 390 b 1553 729 1400 390 1553 542 l 1553 940 z "},"":{"ha":1597,"x_min":0,"x_max":0,"o":"m 1492 211 b 1432 249 1467 211 1443 226 l 1360 399 l 1350 419 b 1551 729 1468 472 1551 592 l 1551 940 l 296 940 b 46 690 157 940 46 829 l 46 0 l 257 0 l 257 390 l 540 390 l 540 0 l 751 0 l 751 601 l 257 601 l 257 650 b 336 729 257 694 292 729 l 1340 729 b 1303 639 1340 694 1326 663 b 1213 601 1279 615 1247 601 l 846 601 l 846 0 l 1056 0 l 1056 390 l 1129 390 l 1132 385 l 1133 383 l 1257 126 b 1458 0 1294 50 1372 0 l 1551 0 l 1551 211 z "},"":{"ha":1383,"x_min":0,"x_max":0,"o":"m 297 940 b 46 690 158 940 46 829 l 46 0 l 257 0 l 257 390 l 542 390 l 542 0 l 753 0 l 753 601 l 257 601 l 257 650 b 336 729 257 694 293 729 l 913 729 l 913 0 l 1124 0 l 1124 729 l 1338 729 l 1338 940 z "},"":{"ha":1599,"x_min":0,"x_max":0,"o":"m 1553 940 l 296 940 b 46 690 158 940 46 829 l 46 0 l 257 0 l 257 390 l 540 390 l 540 0 l 751 0 l 751 601 l 257 601 l 257 650 b 336 729 257 694 292 729 l 1278 729 l 846 211 l 846 0 l 1553 0 l 1553 211 l 1121 211 l 1553 729 z "},"":{"ha":1597,"x_min":0,"x_max":0,"o":"m 1096 640 b 844 390 957 640 844 528 l 844 251 b 1096 0 844 113 957 0 l 1300 0 b 1551 251 1439 0 1551 113 l 1551 390 b 1300 640 1551 528 1439 640 z m 1340 290 b 1261 211 1340 247 1304 211 l 1135 211 b 1056 290 1092 211 1056 247 l 1056 350 b 1135 429 1056 394 1092 429 l 1261 429 b 1340 350 1304 429 1340 394 z m 542 940 l 542 422 l 282 940 l 46 940 l 46 0 l 257 0 l 257 519 l 517 0 l 753 0 l 753 729 l 1551 729 l 1551 940 z "},"":{"ha":1676,"x_min":0,"x_max":0,"o":"m 257 389 l 556 389 l 556 600 l 46 600 l 46 0 l 688 0 l 688 211 l 257 211 z m 46 940 l 46 729 l 779 729 l 779 0 l 990 0 l 990 729 l 1206 729 l 1206 0 l 1417 0 l 1417 729 l 1631 729 l 1631 940 z "},"":{"ha":733,"x_min":0,"x_max":0,"o":"m 688 940 l 46 940 l 46 729 b 140 494 46 638 82 556 b 46 260 82 433 46 350 l 46 0 l 688 0 l 688 211 l 257 211 l 257 261 b 386 389 257 332 314 389 l 554 389 l 554 600 l 385 600 b 294 638 350 600 318 615 b 257 729 271 661 257 693 l 688 729 z "},"":{"ha":799,"x_min":0,"x_max":0,"o":"m 257 940 b 46 729 140 940 46 846 l 463 729 b 542 650 506 729 542 693 l 542 600 l 46 600 l 46 0 l 257 0 l 257 389 l 542 389 l 542 0 l 753 0 l 753 689 b 501 940 753 828 640 940 z "},"":{"ha":733,"x_min":0,"x_max":0,"o":"m 46 729 l 688 729 l 688 940 l 46 940 z m 46 389 l 688 389 l 688 600 l 46 600 z m 46 0 l 688 0 l 688 211 l 46 211 z "},"":{"ha":799,"x_min":0,"x_max":0,"o":"m 238 397 l 165 249 b 106 211 154 225 131 211 l 46 211 l 46 0 l 139 0 b 340 126 225 0 303 49 l 464 382 l 465 383 l 468 389 l 542 389 l 542 0 l 753 0 l 753 600 l 385 600 b 294 639 350 600 318 615 b 257 729 271 661 257 693 l 753 729 l 753 940 l 46 940 l 46 729 b 247 419 46 590 129 472 z "},"":{"ha":797,"x_min":0,"x_max":0,"o":"m 46 729 l 542 729 b 503 638 542 693 526 661 b 413 600 481 615 449 600 l 46 600 l 46 389 l 413 389 b 542 261 483 389 542 332 l 542 211 l 46 211 l 46 0 l 751 0 l 751 260 b 658 494 751 351 717 433 b 751 729 717 556 751 639 l 751 940 l 46 940 z "},"":{"ha":799,"x_min":0,"x_max":0,"o":"m 753 729 l 753 940 l 46 940 l 46 640 b 297 389 46 501 158 389 l 463 389 b 542 310 506 389 542 354 l 542 290 b 463 211 542 246 506 211 l 46 211 l 46 0 l 503 0 b 753 250 640 0 753 113 l 753 350 b 503 600 753 489 640 600 l 322 600 b 257 665 286 600 257 629 l 257 729 z "}}}
